<svg width="450" height="478" viewBox="0 0 450 478" fill="none" xmlns="http://www.w3.org/2000/svg">
<path d="M225 477.636C337.967 477.636 429.546 386.058 429.546 273.091C429.546 160.124 337.967 68.5454 225 68.5454C112.033 68.5454 20.4546 160.124 20.4546 273.091C20.4546 386.058 112.033 477.636 225 477.636Z" fill="#E6E6E6"/>
<mask id="mask0_276_12" style="mask-type:luminance" maskUnits="userSpaceOnUse" x="20" y="68" width="410" height="410">
<path d="M225 477.636C337.967 477.636 429.546 386.058 429.546 273.091C429.546 160.124 337.967 68.5454 225 68.5454C112.033 68.5454 20.4546 160.124 20.4546 273.091C20.4546 386.058 112.033 477.636 225 477.636Z" fill="white"/>
</mask>
<g mask="url(#mask0_276_12)">
<path d="M429.546 68.5454H20.4546V477.636H429.546V68.5454Z" fill="#FF6569"/>
</g>
<mask id="mask1_276_12" style="mask-type:luminance" maskUnits="userSpaceOnUse" x="0" y="0" width="450" height="478">
<path d="M20.4545 273.091C20.4545 386.058 112.033 477.636 225 477.636C337.967 477.636 429.545 386.058 429.545 273.091H450V0.363525H0V273.091H20.4545Z" fill="white"/>
</mask>
<g mask="url(#mask1_276_12)">
<path d="M265.909 308.223V339.568H272.727C340.508 339.568 395.454 394.515 395.454 462.295V477.636H54.5454V462.295C54.5454 394.515 109.492 339.568 177.273 339.568H184.091V308.223C154.709 294.265 133.589 265.739 130.066 231.979C120.137 230.576 112.5 222.043 112.5 211.727V187.863C112.5 177.728 119.871 169.315 129.545 167.692V157.182C129.545 104.464 172.282 61.7271 225 61.7271C277.718 61.7271 320.454 104.464 320.454 157.182V167.692C330.129 169.315 337.5 177.728 337.5 187.863V211.727C337.5 222.043 329.863 230.576 319.934 231.979C316.411 265.739 295.291 294.265 265.909 308.223Z" fill="#D0C6AC"/>
<mask id="mask2_276_12" style="mask-type:luminance" maskUnits="userSpaceOnUse" x="54" y="61" width="342" height="417">
<path d="M265.909 308.223V339.568H272.727C340.508 339.568 395.454 394.515 395.454 462.295V477.636H54.5454V462.295C54.5454 394.515 109.492 339.568 177.273 339.568H184.091V308.223C154.709 294.265 133.589 265.739 130.066 231.979C120.137 230.576 112.5 222.043 112.5 211.727V187.863C112.5 177.728 119.871 169.315 129.545 167.692V157.182C129.545 104.464 172.282 61.7271 225 61.7271C277.718 61.7271 320.454 104.464 320.454 157.182V167.692C330.129 169.315 337.5 177.728 337.5 187.863V211.727C337.5 222.043 329.863 230.576 319.934 231.979C316.411 265.739 295.291 294.265 265.909 308.223Z" fill="white"/>
</mask>
<g mask="url(#mask2_276_12)">
<path d="M450 61.7271H0V477.636H450V61.7271Z" fill="#EDB98A"/>
</g>
<mask id="mask3_276_12" style="mask-type:luminance" maskUnits="userSpaceOnUse" x="54" y="61" width="342" height="417">
<path d="M265.909 308.223V339.568H272.727C340.508 339.568 395.454 394.515 395.454 462.295V477.636H54.5454V462.295C54.5454 394.515 109.492 339.568 177.273 339.568H184.091V308.223C154.709 294.265 133.589 265.739 130.066 231.979C120.137 230.576 112.5 222.043 112.5 211.727V187.863C112.5 177.728 119.871 169.315 129.545 167.692V157.182C129.545 104.464 172.282 61.7271 225 61.7271C277.718 61.7271 320.454 104.464 320.454 157.182V167.692C330.129 169.315 337.5 177.728 337.5 187.863V211.727C337.5 222.043 329.863 230.576 319.934 231.979C316.411 265.739 295.291 294.265 265.909 308.223Z" fill="white"/>
</mask>
<g mask="url(#mask3_276_12)">
<path fill-rule="evenodd" clip-rule="evenodd" d="M320.454 196.386V235.591C320.454 288.309 277.718 331.045 225 331.045C172.282 331.045 129.545 288.309 129.545 235.591V196.386V221.954C129.545 274.673 172.282 317.409 225 317.409C277.718 317.409 320.454 274.673 320.454 221.954V196.386Z" fill="black" fill-opacity="0.1"/>
</g>
<path fill-rule="evenodd" clip-rule="evenodd" d="M184.091 312.416C153.548 315.834 130.022 325.168 129.553 349.19C85.4768 367.809 54.5454 411.44 54.5454 462.295V477.636H395.454V462.295C395.454 411.44 364.523 367.809 320.447 349.19C319.978 325.168 296.452 315.834 265.909 312.416V344.682C265.909 367.275 247.593 385.591 225 385.591C202.406 385.591 184.091 367.275 184.091 344.682V312.416Z" fill="#B7C1DB"/>
<mask id="mask4_276_12" style="mask-type:luminance" maskUnits="userSpaceOnUse" x="54" y="312" width="342" height="166">
<path fill-rule="evenodd" clip-rule="evenodd" d="M184.091 312.416C153.548 315.834 130.022 325.168 129.553 349.19C85.4768 367.809 54.5454 411.44 54.5454 462.295V477.636H395.454V462.295C395.454 411.44 364.523 367.809 320.447 349.19C319.978 325.168 296.452 315.834 265.909 312.416V344.682C265.909 367.275 247.593 385.591 225 385.591C202.406 385.591 184.091 367.275 184.091 344.682V312.416Z" fill="white"/>
</mask>
<g mask="url(#mask4_276_12)">
<path d="M450 290.136H0V477.636H450V290.136Z" fill="#262E33"/>
</g>
<mask id="mask5_276_12" style="mask-type:luminance" maskUnits="userSpaceOnUse" x="54" y="312" width="342" height="166">
<path fill-rule="evenodd" clip-rule="evenodd" d="M184.091 312.416C153.548 315.834 130.022 325.168 129.553 349.19C85.4768 367.809 54.5454 411.44 54.5454 462.295V477.636H395.454V462.295C395.454 411.44 364.523 367.809 320.447 349.19C319.978 325.168 296.452 315.834 265.909 312.416V344.682C265.909 367.275 247.593 385.591 225 385.591C202.406 385.591 184.091 367.275 184.091 344.682V312.416Z" fill="white"/>
</mask>
<g mask="url(#mask5_276_12)">
<path fill-rule="evenodd" clip-rule="evenodd" d="M173.864 395.373V477.636H161.932V389.256C165.688 391.489 169.682 393.535 173.864 395.373ZM288.068 389.256V458.034C288.068 461.329 285.397 464 282.102 464C278.807 464 276.136 461.329 276.136 458.034V395.373C280.318 393.535 284.312 391.489 288.068 389.256Z" fill="#F4F4F4"/>
</g>
<mask id="mask6_276_12" style="mask-type:luminance" maskUnits="userSpaceOnUse" x="54" y="312" width="342" height="166">
<path fill-rule="evenodd" clip-rule="evenodd" d="M184.091 312.416C153.548 315.834 130.022 325.168 129.553 349.19C85.4768 367.809 54.5454 411.44 54.5454 462.295V477.636H395.454V462.295C395.454 411.44 364.523 367.809 320.447 349.19C319.978 325.168 296.452 315.834 265.909 312.416V344.682C265.909 367.275 247.593 385.591 225 385.591C202.406 385.591 184.091 367.275 184.091 344.682V312.416Z" fill="white"/>
</mask>
<g mask="url(#mask6_276_12)">
<path fill-rule="evenodd" clip-rule="evenodd" d="M155.046 311.826C129.391 316.678 111.648 326.346 111.648 345.206C111.648 378.807 167.962 406.046 225 406.046C282.038 406.046 338.352 378.807 338.352 345.206C338.352 326.346 320.609 316.678 294.954 311.826C310.44 317.536 320.455 327.135 320.455 343.108C320.455 377.868 273.032 406.046 225 406.046C176.968 406.046 129.545 377.868 129.545 343.108C129.545 327.135 139.56 317.536 155.046 311.826Z" fill="black" fill-opacity="0.16"/>
</g>
<path fill-rule="evenodd" clip-rule="evenodd" d="M192.814 254.559C194.618 270.738 208.34 283.318 225 283.318C241.712 283.318 255.467 270.66 257.202 254.409C257.341 253.101 255.881 250.932 254.05 250.932C228.663 250.932 209.212 250.932 196.171 250.932C194.329 250.932 192.634 252.94 192.814 254.559Z" fill="black" fill-opacity="0.7"/>
<mask id="mask7_276_12" style="mask-type:luminance" maskUnits="userSpaceOnUse" x="192" y="250" width="66" height="34">
<path fill-rule="evenodd" clip-rule="evenodd" d="M192.814 254.559C194.618 270.738 208.34 283.318 225 283.318C241.712 283.318 255.467 270.66 257.202 254.409C257.341 253.101 255.881 250.932 254.05 250.932C228.663 250.932 209.212 250.932 196.171 250.932C194.329 250.932 192.634 252.94 192.814 254.559Z" fill="white"/>
</mask>
<g mask="url(#mask7_276_12)">
<path d="M243.75 232.182H207.954C203.248 232.182 199.432 235.997 199.432 240.704V250.932C199.432 255.639 203.248 259.454 207.954 259.454H243.75C248.457 259.454 252.273 255.639 252.273 250.932V240.704C252.273 235.997 248.457 232.182 243.75 232.182Z" fill="white"/>
</g>
<mask id="mask8_276_12" style="mask-type:luminance" maskUnits="userSpaceOnUse" x="192" y="250" width="66" height="34">
<path fill-rule="evenodd" clip-rule="evenodd" d="M192.814 254.559C194.618 270.738 208.34 283.318 225 283.318C241.712 283.318 255.467 270.66 257.202 254.409C257.341 253.101 255.881 250.932 254.05 250.932C228.663 250.932 209.212 250.932 196.171 250.932C194.329 250.932 192.634 252.94 192.814 254.559Z" fill="white"/>
</mask>
<g mask="url(#mask8_276_12)">
<path d="M216.477 307.182C226.833 307.182 235.227 298.787 235.227 288.432C235.227 278.076 226.833 269.682 216.477 269.682C206.122 269.682 197.727 278.076 197.727 288.432C197.727 298.787 206.122 307.182 216.477 307.182Z" fill="#FF4F6D"/>
<path d="M233.523 307.182C243.878 307.182 252.273 298.787 252.273 288.432C252.273 278.076 243.878 269.682 233.523 269.682C223.167 269.682 214.773 278.076 214.773 288.432C214.773 298.787 223.167 307.182 233.523 307.182Z" fill="#FF4F6D"/>
</g>
<path fill-rule="evenodd" clip-rule="evenodd" d="M204.546 221.954C204.546 229.486 213.703 235.591 225 235.591C236.297 235.591 245.455 229.486 245.455 221.954" fill="black" fill-opacity="0.16"/>
<path d="M180.682 201.5C186.33 201.5 190.909 196.921 190.909 191.272C190.909 185.624 186.33 181.045 180.682 181.045C175.033 181.045 170.455 185.624 170.455 191.272C170.455 196.921 175.033 201.5 180.682 201.5Z" fill="black" fill-opacity="0.6"/>
<path d="M269.318 201.5C274.967 201.5 279.545 196.921 279.545 191.272C279.545 185.624 274.967 181.045 269.318 181.045C263.67 181.045 259.091 185.624 259.091 191.272C259.091 196.921 263.67 201.5 269.318 201.5Z" fill="black" fill-opacity="0.6"/>
<path d="M156.188 169.384C162.861 159.994 181.156 154.729 196.914 158.598C198.743 159.047 200.589 157.929 201.038 156.101C201.487 154.272 200.369 152.426 198.54 151.977C180.239 147.483 159.055 153.58 150.63 165.434C149.54 166.969 149.9 169.097 151.434 170.188C152.969 171.278 155.097 170.918 156.188 169.384Z" fill="black" fill-opacity="0.6"/>
<path d="M293.813 169.384C287.14 159.994 268.845 154.729 253.086 158.598C251.258 159.047 249.412 157.929 248.963 156.101C248.514 154.272 249.632 152.426 251.46 151.977C269.761 147.483 290.946 153.58 299.37 165.434C300.461 166.969 300.101 169.097 298.566 170.188C297.032 171.278 294.903 170.918 293.813 169.384Z" fill="black" fill-opacity="0.6"/>
<mask id="mask9_276_12" style="mask-type:luminance" maskUnits="userSpaceOnUse" x="0" y="0" width="450" height="478">
<path d="M450 0.363525H0V477.636H450V0.363525Z" fill="white"/>
</mask>
<g mask="url(#mask9_276_12)">
<path fill-rule="evenodd" clip-rule="evenodd" d="M283.481 60.0331C249.07 40.0906 214.993 43.3556 189.268 49.8465C163.542 56.3374 148.324 74.7693 135.267 102.036C128.856 115.425 125.056 131.258 124.471 146.07C124.242 151.886 125.026 157.889 126.593 163.489C127.168 165.545 130.267 172.671 131.118 166.913C131.401 164.996 130.364 162.351 130.264 160.314C130.133 157.641 130.274 154.933 130.456 152.264C130.797 147.274 131.686 142.379 133.269 137.622C135.532 130.824 138.411 123.454 142.82 117.718C153.73 103.524 172.617 102.715 187.613 94.9038C186.312 97.2988 181.295 101.176 183.033 103.875C184.233 105.74 188.778 105.175 190.947 105.115C196.655 104.959 202.389 103.965 208.028 103.16C216.914 101.889 225.24 99.3155 233.602 96.1899C240.448 93.6302 248.267 91.2597 253.413 85.8303C261.716 94.4343 272.403 102.525 283.075 107.994C292.651 112.902 308.095 115.354 313.948 125.308C320.877 137.093 317.689 151.569 319.805 164.342C320.61 169.2 322.439 169.091 323.44 164.746C325.139 157.366 325.942 149.699 325.401 142.112C324.177 124.985 317.892 79.9756 283.481 60.0331Z" fill="#28354B"/>
<mask id="mask10_276_12" style="mask-type:luminance" maskUnits="userSpaceOnUse" x="124" y="44" width="202" height="126">
<path fill-rule="evenodd" clip-rule="evenodd" d="M283.481 60.0331C249.07 40.0906 214.993 43.3556 189.268 49.8465C163.542 56.3374 148.324 74.7693 135.267 102.036C128.856 115.425 125.056 131.258 124.471 146.07C124.242 151.886 125.026 157.889 126.593 163.489C127.168 165.545 130.267 172.671 131.118 166.913C131.401 164.996 130.364 162.351 130.264 160.314C130.133 157.641 130.274 154.933 130.456 152.264C130.797 147.274 131.686 142.379 133.269 137.622C135.532 130.824 138.411 123.454 142.82 117.718C153.73 103.524 172.617 102.715 187.613 94.9038C186.312 97.2988 181.295 101.176 183.033 103.875C184.233 105.74 188.778 105.175 190.947 105.115C196.655 104.959 202.389 103.965 208.028 103.16C216.914 101.889 225.24 99.3155 233.602 96.1899C240.448 93.6302 248.267 91.2597 253.413 85.8303C261.716 94.4343 272.403 102.525 283.075 107.994C292.651 112.902 308.095 115.354 313.948 125.308C320.877 137.093 317.689 151.569 319.805 164.342C320.61 169.2 322.439 169.091 323.44 164.746C325.139 157.366 325.942 149.699 325.401 142.112C324.177 124.985 317.892 79.9756 283.481 60.0331Z" fill="white"/>
</mask>
<g mask="url(#mask10_276_12)">
<path d="M448.296 0.363525H-1.70447V477.636H448.296V0.363525Z" fill="#4A312C"/>
</g>
<g filter="url(#filter0_d_276_12)">
<path fill-rule="evenodd" clip-rule="evenodd" d="M241.133 173.194C247.807 159.668 261.737 150.364 277.841 150.364C293.045 150.364 306.312 158.658 313.364 170.968C313.722 170.87 314.099 170.818 314.489 170.818H328.125C330.479 170.818 332.386 172.726 332.386 175.079C332.386 177.433 330.479 179.341 328.125 179.341H316.983C318.132 183.116 318.75 187.122 318.75 191.273C318.75 213.866 300.434 232.182 277.841 232.182C255.247 232.182 236.932 213.866 236.932 191.273C236.932 188.849 237.143 186.474 237.547 184.167C237.403 176.708 231.671 170.818 224.766 170.818C218.396 170.818 213.025 175.829 212.117 182.46C212.74 185.299 213.068 188.247 213.068 191.273C213.068 213.866 194.753 232.182 172.159 232.182C149.566 232.182 131.25 213.866 131.25 191.273C131.25 187.122 131.868 183.116 133.017 179.341H121.875C119.522 179.341 117.614 177.433 117.614 175.079C117.614 172.726 119.522 170.818 121.875 170.818H135.511C135.901 170.818 136.278 170.87 136.637 170.968C143.688 158.658 156.955 150.364 172.159 150.364C188.1 150.364 201.912 159.481 208.663 172.787C212.204 167.476 218.096 164 224.766 164C231.605 164 237.626 167.655 241.133 173.194ZM172.159 225.364C190.987 225.364 206.25 210.101 206.25 191.273C206.25 172.445 190.987 157.182 172.159 157.182C153.331 157.182 138.068 172.445 138.068 191.273C138.068 210.101 153.331 225.364 172.159 225.364ZM277.841 225.364C296.669 225.364 311.932 210.101 311.932 191.273C311.932 172.445 296.669 157.182 277.841 157.182C259.013 157.182 243.75 172.445 243.75 191.273C243.75 210.101 259.013 225.364 277.841 225.364Z" fill="black"/>
</g>
<path fill-rule="evenodd" clip-rule="evenodd" d="M241.133 173.194C247.807 159.668 261.737 150.364 277.841 150.364C293.045 150.364 306.312 158.658 313.364 170.968C313.722 170.87 314.099 170.818 314.489 170.818H328.125C330.479 170.818 332.386 172.726 332.386 175.079C332.386 177.433 330.479 179.341 328.125 179.341H316.983C318.132 183.116 318.75 187.122 318.75 191.273C318.75 213.866 300.434 232.182 277.841 232.182C255.247 232.182 236.932 213.866 236.932 191.273C236.932 188.849 237.143 186.474 237.547 184.167C237.403 176.708 231.671 170.818 224.766 170.818C218.396 170.818 213.025 175.829 212.117 182.46C212.74 185.299 213.068 188.247 213.068 191.273C213.068 213.866 194.753 232.182 172.159 232.182C149.566 232.182 131.25 213.866 131.25 191.273C131.25 187.122 131.868 183.116 133.017 179.341H121.875C119.522 179.341 117.614 177.433 117.614 175.079C117.614 172.726 119.522 170.818 121.875 170.818H135.511C135.901 170.818 136.278 170.87 136.637 170.968C143.688 158.658 156.955 150.364 172.159 150.364C188.1 150.364 201.912 159.481 208.663 172.787C212.204 167.476 218.096 164 224.766 164C231.605 164 237.626 167.655 241.133 173.194ZM172.159 225.364C190.987 225.364 206.25 210.101 206.25 191.273C206.25 172.445 190.987 157.182 172.159 157.182C153.331 157.182 138.068 172.445 138.068 191.273C138.068 210.101 153.331 225.364 172.159 225.364ZM277.841 225.364C296.669 225.364 311.932 210.101 311.932 191.273C311.932 172.445 296.669 157.182 277.841 157.182C259.013 157.182 243.75 172.445 243.75 191.273C243.75 210.101 259.013 225.364 277.841 225.364Z" fill="#252C2F"/>
</g>
</g>
<defs>
<filter id="filter0_d_276_12" x="117.614" y="150.364" width="214.773" height="85.2272" filterUnits="userSpaceOnUse" color-interpolation-filters="sRGB">
<feFlood flood-opacity="0" result="BackgroundImageFix"/>
<feColorMatrix in="SourceAlpha" type="matrix" values="0 0 0 0 0 0 0 0 0 0 0 0 0 0 0 0 0 0 127 0" result="hardAlpha"/>
<feOffset dy="3.40909"/>
<feColorMatrix type="matrix" values="0 0 0 0 0 0 0 0 0 0 0 0 0 0 0 0 0 0 0.1 0"/>
<feBlend mode="normal" in2="BackgroundImageFix" result="effect1_dropShadow_276_12"/>
<feBlend mode="normal" in="SourceGraphic" in2="effect1_dropShadow_276_12" result="shape"/>
</filter>
</defs>
</svg>
