<svg width="450" height="478" viewBox="0 0 450 478" fill="none" xmlns="http://www.w3.org/2000/svg">
<path d="M225 477.636C337.967 477.636 429.546 386.058 429.546 273.091C429.546 160.124 337.967 68.5454 225 68.5454C112.033 68.5454 20.4546 160.124 20.4546 273.091C20.4546 386.058 112.033 477.636 225 477.636Z" fill="#E6E6E6"/>
<mask id="mask0_277_139" style="mask-type:luminance" maskUnits="userSpaceOnUse" x="20" y="68" width="410" height="410">
<path d="M225 477.636C337.967 477.636 429.546 386.058 429.546 273.091C429.546 160.124 337.967 68.5454 225 68.5454C112.033 68.5454 20.4546 160.124 20.4546 273.091C20.4546 386.058 112.033 477.636 225 477.636Z" fill="white"/>
</mask>
<g mask="url(#mask0_277_139)">
<path d="M429.546 68.5454H20.4546V477.636H429.546V68.5454Z" fill="#FF6569"/>
</g>
<mask id="mask1_277_139" style="mask-type:luminance" maskUnits="userSpaceOnUse" x="0" y="0" width="450" height="478">
<path d="M20.4545 273.091C20.4545 386.058 112.033 477.636 225 477.636C337.967 477.636 429.545 386.058 429.545 273.091H450V0.363525H0V273.091H20.4545Z" fill="white"/>
</mask>
<g mask="url(#mask1_277_139)">
<path d="M265.909 308.223V339.568H272.727C340.508 339.568 395.454 394.515 395.454 462.295V477.636H54.5454V462.295C54.5454 394.515 109.492 339.568 177.273 339.568H184.091V308.223C154.709 294.265 133.589 265.739 130.066 231.979C120.137 230.576 112.5 222.043 112.5 211.727V187.863C112.5 177.728 119.871 169.315 129.545 167.692V157.182C129.545 104.464 172.282 61.7271 225 61.7271C277.718 61.7271 320.454 104.464 320.454 157.182V167.692C330.129 169.315 337.5 177.728 337.5 187.863V211.727C337.5 222.043 329.863 230.576 319.934 231.979C316.411 265.739 295.291 294.265 265.909 308.223Z" fill="#D0C6AC"/>
<mask id="mask2_277_139" style="mask-type:luminance" maskUnits="userSpaceOnUse" x="54" y="61" width="342" height="417">
<path d="M265.909 308.223V339.568H272.727C340.508 339.568 395.454 394.515 395.454 462.295V477.636H54.5454V462.295C54.5454 394.515 109.492 339.568 177.273 339.568H184.091V308.223C154.709 294.265 133.589 265.739 130.066 231.979C120.137 230.576 112.5 222.043 112.5 211.727V187.863C112.5 177.728 119.871 169.315 129.545 167.692V157.182C129.545 104.464 172.282 61.7271 225 61.7271C277.718 61.7271 320.454 104.464 320.454 157.182V167.692C330.129 169.315 337.5 177.728 337.5 187.863V211.727C337.5 222.043 329.863 230.576 319.934 231.979C316.411 265.739 295.291 294.265 265.909 308.223Z" fill="white"/>
</mask>
<g mask="url(#mask2_277_139)">
<path d="M450 61.7271H0V477.636H450V61.7271Z" fill="#EDB98A"/>
</g>
<mask id="mask3_277_139" style="mask-type:luminance" maskUnits="userSpaceOnUse" x="54" y="61" width="342" height="417">
<path d="M265.909 308.223V339.568H272.727C340.508 339.568 395.454 394.515 395.454 462.295V477.636H54.5454V462.295C54.5454 394.515 109.492 339.568 177.273 339.568H184.091V308.223C154.709 294.265 133.589 265.739 130.066 231.979C120.137 230.576 112.5 222.043 112.5 211.727V187.863C112.5 177.728 119.871 169.315 129.545 167.692V157.182C129.545 104.464 172.282 61.7271 225 61.7271C277.718 61.7271 320.454 104.464 320.454 157.182V167.692C330.129 169.315 337.5 177.728 337.5 187.863V211.727C337.5 222.043 329.863 230.576 319.934 231.979C316.411 265.739 295.291 294.265 265.909 308.223Z" fill="white"/>
</mask>
<g mask="url(#mask3_277_139)">
<path fill-rule="evenodd" clip-rule="evenodd" d="M320.454 196.386V235.591C320.454 288.309 277.718 331.045 225 331.045C172.282 331.045 129.545 288.309 129.545 235.591V196.386V221.954C129.545 274.673 172.282 317.409 225 317.409C277.718 317.409 320.454 274.673 320.454 221.954V196.386Z" fill="black" fill-opacity="0.1"/>
</g>
<path fill-rule="evenodd" clip-rule="evenodd" d="M184.091 312.416C153.548 315.834 130.022 325.168 129.553 349.19C85.4768 367.809 54.5454 411.44 54.5454 462.295V477.636H395.454V462.295C395.454 411.44 364.523 367.809 320.447 349.19C319.978 325.168 296.452 315.834 265.909 312.416V344.682C265.909 367.275 247.593 385.591 225 385.591C202.406 385.591 184.091 367.275 184.091 344.682V312.416Z" fill="#B7C1DB"/>
<mask id="mask4_277_139" style="mask-type:luminance" maskUnits="userSpaceOnUse" x="54" y="312" width="342" height="166">
<path fill-rule="evenodd" clip-rule="evenodd" d="M184.091 312.416C153.548 315.834 130.022 325.168 129.553 349.19C85.4768 367.809 54.5454 411.44 54.5454 462.295V477.636H395.454V462.295C395.454 411.44 364.523 367.809 320.447 349.19C319.978 325.168 296.452 315.834 265.909 312.416V344.682C265.909 367.275 247.593 385.591 225 385.591C202.406 385.591 184.091 367.275 184.091 344.682V312.416Z" fill="white"/>
</mask>
<g mask="url(#mask4_277_139)">
<path d="M450 290.136H0V477.636H450V290.136Z" fill="white"/>
</g>
<mask id="mask5_277_139" style="mask-type:luminance" maskUnits="userSpaceOnUse" x="54" y="312" width="342" height="166">
<path fill-rule="evenodd" clip-rule="evenodd" d="M184.091 312.416C153.548 315.834 130.022 325.168 129.553 349.19C85.4768 367.809 54.5454 411.44 54.5454 462.295V477.636H395.454V462.295C395.454 411.44 364.523 367.809 320.447 349.19C319.978 325.168 296.452 315.834 265.909 312.416V344.682C265.909 367.275 247.593 385.591 225 385.591C202.406 385.591 184.091 367.275 184.091 344.682V312.416Z" fill="white"/>
</mask>
<g mask="url(#mask5_277_139)">
<path fill-rule="evenodd" clip-rule="evenodd" d="M173.864 395.373V477.636H161.932V389.256C165.688 391.489 169.682 393.535 173.864 395.373ZM288.068 389.256V458.034C288.068 461.329 285.397 464 282.102 464C278.807 464 276.136 461.329 276.136 458.034V395.373C280.318 393.535 284.312 391.489 288.068 389.256Z" fill="#F4F4F4"/>
</g>
<mask id="mask6_277_139" style="mask-type:luminance" maskUnits="userSpaceOnUse" x="54" y="312" width="342" height="166">
<path fill-rule="evenodd" clip-rule="evenodd" d="M184.091 312.416C153.548 315.834 130.022 325.168 129.553 349.19C85.4768 367.809 54.5454 411.44 54.5454 462.295V477.636H395.454V462.295C395.454 411.44 364.523 367.809 320.447 349.19C319.978 325.168 296.452 315.834 265.909 312.416V344.682C265.909 367.275 247.593 385.591 225 385.591C202.406 385.591 184.091 367.275 184.091 344.682V312.416Z" fill="white"/>
</mask>
<g mask="url(#mask6_277_139)">
<path fill-rule="evenodd" clip-rule="evenodd" d="M155.046 311.826C129.391 316.678 111.648 326.346 111.648 345.206C111.648 378.807 167.962 406.046 225 406.046C282.038 406.046 338.352 378.807 338.352 345.206C338.352 326.346 320.609 316.678 294.954 311.826C310.44 317.536 320.455 327.135 320.455 343.108C320.455 377.868 273.032 406.046 225 406.046C176.968 406.046 129.545 377.868 129.545 343.108C129.545 327.135 139.56 317.536 155.046 311.826Z" fill="black" fill-opacity="0.16"/>
</g>
<path fill-rule="evenodd" clip-rule="evenodd" d="M192.814 254.559C194.618 270.738 208.34 283.318 225 283.318C241.712 283.318 255.467 270.66 257.202 254.409C257.341 253.101 255.881 250.932 254.05 250.932C228.663 250.932 209.212 250.932 196.171 250.932C194.329 250.932 192.634 252.94 192.814 254.559Z" fill="black" fill-opacity="0.7"/>
<mask id="mask7_277_139" style="mask-type:luminance" maskUnits="userSpaceOnUse" x="192" y="250" width="66" height="34">
<path fill-rule="evenodd" clip-rule="evenodd" d="M192.814 254.559C194.618 270.738 208.34 283.318 225 283.318C241.712 283.318 255.467 270.66 257.202 254.409C257.341 253.101 255.881 250.932 254.05 250.932C228.663 250.932 209.212 250.932 196.171 250.932C194.329 250.932 192.634 252.94 192.814 254.559Z" fill="white"/>
</mask>
<g mask="url(#mask7_277_139)">
<path d="M243.75 232.182H207.954C203.248 232.182 199.432 235.997 199.432 240.704V250.932C199.432 255.639 203.248 259.454 207.954 259.454H243.75C248.457 259.454 252.273 255.639 252.273 250.932V240.704C252.273 235.997 248.457 232.182 243.75 232.182Z" fill="white"/>
</g>
<mask id="mask8_277_139" style="mask-type:luminance" maskUnits="userSpaceOnUse" x="192" y="250" width="66" height="34">
<path fill-rule="evenodd" clip-rule="evenodd" d="M192.814 254.559C194.618 270.738 208.34 283.318 225 283.318C241.712 283.318 255.467 270.66 257.202 254.409C257.341 253.101 255.881 250.932 254.05 250.932C228.663 250.932 209.212 250.932 196.171 250.932C194.329 250.932 192.634 252.94 192.814 254.559Z" fill="white"/>
</mask>
<g mask="url(#mask8_277_139)">
<path d="M216.477 307.182C226.833 307.182 235.227 298.787 235.227 288.432C235.227 278.076 226.833 269.682 216.477 269.682C206.122 269.682 197.727 278.076 197.727 288.432C197.727 298.787 206.122 307.182 216.477 307.182Z" fill="#FF4F6D"/>
<path d="M233.523 307.182C243.878 307.182 252.273 298.787 252.273 288.432C252.273 278.076 243.878 269.682 233.523 269.682C223.167 269.682 214.773 278.076 214.773 288.432C214.773 298.787 223.167 307.182 233.523 307.182Z" fill="#FF4F6D"/>
</g>
<path fill-rule="evenodd" clip-rule="evenodd" d="M204.545 221.955C204.545 229.486 213.703 235.591 225 235.591C236.297 235.591 245.455 229.486 245.455 221.955" fill="black" fill-opacity="0.16"/>
<path d="M180.682 201.5C186.33 201.5 190.909 196.921 190.909 191.273C190.909 185.624 186.33 181.045 180.682 181.045C175.033 181.045 170.455 185.624 170.455 191.273C170.455 196.921 175.033 201.5 180.682 201.5Z" fill="black" fill-opacity="0.6"/>
<path d="M269.318 201.5C274.967 201.5 279.545 196.921 279.545 191.273C279.545 185.624 274.967 181.045 269.318 181.045C263.67 181.045 259.091 185.624 259.091 191.273C259.091 196.921 263.67 201.5 269.318 201.5Z" fill="black" fill-opacity="0.6"/>
<path fill-rule="evenodd" clip-rule="evenodd" d="M174.797 150.617C164.898 151.074 148.896 158.266 149.308 168.248C149.322 168.575 149.802 168.718 150.036 168.467C154.732 163.423 188.074 158.325 199.817 161.026C200.892 161.274 201.709 160.214 201.028 159.448C195.195 152.888 183.664 150.198 174.797 150.617Z" fill="black" fill-opacity="0.6"/>
<path fill-rule="evenodd" clip-rule="evenodd" d="M276.908 150.617C286.806 151.074 302.809 158.266 302.396 168.248C302.383 168.575 301.903 168.718 301.668 168.467C296.972 163.423 263.631 158.325 251.887 161.026C250.812 161.274 249.996 160.214 250.677 159.448C256.51 152.888 268.04 150.198 276.908 150.617Z" fill="black" fill-opacity="0.6"/>
<mask id="mask9_277_139" style="mask-type:luminance" maskUnits="userSpaceOnUse" x="0" y="0" width="450" height="478">
<path d="M450 0.363525H0V477.636H450V0.363525Z" fill="white"/>
</mask>
<g mask="url(#mask9_277_139)">
<path fill-rule="evenodd" clip-rule="evenodd" d="M316.759 126.378C319.754 128.063 322.125 144.956 322.24 151.416C322.312 155.402 322.376 170.603 318.16 169.289C316.877 168.889 314.918 160.842 314.639 156.132C314.36 151.422 311.685 135.397 307.58 128.025C306.642 126.34 303.956 123.382 305.116 121.957C306.556 120.19 307.954 121.215 309.711 121.923C311.612 122.689 316.422 126.19 316.759 126.378ZM318.131 121.312C316.859 122.952 308.175 118.348 304.553 116.347C274.135 99.5408 268.23 94.1964 220.305 94.8938C172.38 95.5912 139.547 118.045 137.7 120.342C136.415 121.94 134.775 126.206 133.426 138.092C132.077 149.977 133.799 171.291 128.916 171.266C124.758 171.244 123.854 130.722 125.648 114.647C125.924 112.179 126.986 107.764 126.217 105.544C125.545 103.605 122.259 103.609 122.784 100.378C123.38 96.6998 127.088 98.5266 128.703 96.7681C131.762 93.4366 127.044 92.6482 126.261 89.7339C125.098 85.4018 128.459 84.2844 131.488 82.9164C134.84 81.4039 134.404 82.7324 137.124 79.7695C133.491 77.1063 132.177 73.478 137.152 71.5315C139.265 70.7047 144.762 71.799 146.417 70.5569C146.849 70.2329 147.02 68.3762 147.285 67.9964C149.929 64.2146 149.277 61.4769 149.009 57.2312C148.788 53.757 148.818 50.5678 152.977 50.2207C155.753 49.9893 158.01 52.2569 160.497 52.9245C163.256 53.6655 162.22 54.2062 164.381 52.7185C168.176 50.105 165.593 45.0127 168.602 41.9748C172.732 37.8059 175.438 43.9168 178.754 44.3778C185.951 45.3807 183.641 38.0711 187.902 35.3926C192.995 32.1938 193.488 39.2292 196.669 39.4797C199.425 39.6959 204.388 34.3768 206.791 33.3858C213.92 30.4438 217.453 38.7224 224.24 37.6665C229.165 36.9001 230.494 36.2742 234.939 39.0762C239.253 41.7959 240.278 39.8517 245.163 39.8127C248.614 39.7868 250.728 42.6706 253.615 42.9715C255.055 43.1221 256.434 41.6221 257.979 41.7163C263.497 42.051 263.846 49.1868 268.23 51.1513C272.236 52.9465 276.945 50.4244 280.92 49.9577C290.62 48.8194 283.978 57.8791 284.251 63.2862C288.059 64.1745 291.923 60.6207 295.713 61.2748C301.682 62.3053 299.429 68.4907 298.046 72.6608C302.181 72.5863 312.976 67.9958 315.656 73.8668C317.037 76.8941 313.818 80.9355 313.871 84.0129C313.945 88.345 317.128 91.9292 318.255 96.0293C319.775 101.564 321.941 116.399 318.131 121.312Z" fill="#2E3257"/>
<mask id="mask10_277_139" style="mask-type:luminance" maskUnits="userSpaceOnUse" x="122" y="32" width="201" height="140">
<path fill-rule="evenodd" clip-rule="evenodd" d="M316.759 126.378C319.754 128.063 322.125 144.956 322.24 151.416C322.312 155.402 322.376 170.603 318.16 169.289C316.877 168.889 314.918 160.842 314.639 156.132C314.36 151.422 311.685 135.397 307.58 128.025C306.642 126.34 303.956 123.382 305.116 121.957C306.556 120.19 307.954 121.215 309.711 121.923C311.612 122.689 316.422 126.19 316.759 126.378ZM318.131 121.312C316.859 122.952 308.175 118.348 304.553 116.347C274.135 99.5408 268.23 94.1964 220.305 94.8938C172.38 95.5912 139.547 118.045 137.7 120.342C136.415 121.94 134.775 126.206 133.426 138.092C132.077 149.977 133.799 171.291 128.916 171.266C124.758 171.244 123.854 130.722 125.648 114.647C125.924 112.179 126.986 107.764 126.217 105.544C125.545 103.605 122.259 103.609 122.784 100.378C123.38 96.6998 127.088 98.5266 128.703 96.7681C131.762 93.4366 127.044 92.6482 126.261 89.7339C125.098 85.4018 128.459 84.2844 131.488 82.9164C134.84 81.4039 134.404 82.7324 137.124 79.7695C133.491 77.1063 132.177 73.478 137.152 71.5315C139.265 70.7047 144.762 71.799 146.417 70.5569C146.849 70.2329 147.02 68.3762 147.285 67.9964C149.929 64.2146 149.277 61.4769 149.009 57.2312C148.788 53.757 148.818 50.5678 152.977 50.2207C155.753 49.9893 158.01 52.2569 160.497 52.9245C163.256 53.6655 162.22 54.2062 164.381 52.7185C168.176 50.105 165.593 45.0127 168.602 41.9748C172.732 37.8059 175.438 43.9168 178.754 44.3778C185.951 45.3807 183.641 38.0711 187.902 35.3926C192.995 32.1938 193.488 39.2292 196.669 39.4797C199.425 39.6959 204.388 34.3768 206.791 33.3858C213.92 30.4438 217.453 38.7224 224.24 37.6665C229.165 36.9001 230.494 36.2742 234.939 39.0762C239.253 41.7959 240.278 39.8517 245.163 39.8127C248.614 39.7868 250.728 42.6706 253.615 42.9715C255.055 43.1221 256.434 41.6221 257.979 41.7163C263.497 42.051 263.846 49.1868 268.23 51.1513C272.236 52.9465 276.945 50.4244 280.92 49.9577C290.62 48.8194 283.978 57.8791 284.251 63.2862C288.059 64.1745 291.923 60.6207 295.713 61.2748C301.682 62.3053 299.429 68.4907 298.046 72.6608C302.181 72.5863 312.976 67.9958 315.656 73.8668C317.037 76.8941 313.818 80.9355 313.871 84.0129C313.945 88.345 317.128 91.9292 318.255 96.0293C319.775 101.564 321.941 116.399 318.131 121.312Z" fill="white"/>
</mask>
<g mask="url(#mask10_277_139)">
<path d="M450 0.363281H0V477.636H450V0.363281Z" fill="#2C1B18"/>
</g>
</g>
</g>
</svg>
