<svg width="450" height="478" viewBox="0 0 450 478" fill="none" xmlns="http://www.w3.org/2000/svg">
<path d="M225 477.636C337.967 477.636 429.546 386.058 429.546 273.091C429.546 160.124 337.967 68.5454 225 68.5454C112.033 68.5454 20.4546 160.124 20.4546 273.091C20.4546 386.058 112.033 477.636 225 477.636Z" fill="#E6E6E6"/>
<mask id="mask0_284_11" style="mask-type:luminance" maskUnits="userSpaceOnUse" x="20" y="68" width="410" height="410">
<path d="M225 477.636C337.967 477.636 429.546 386.058 429.546 273.091C429.546 160.124 337.967 68.5454 225 68.5454C112.033 68.5454 20.4546 160.124 20.4546 273.091C20.4546 386.058 112.033 477.636 225 477.636Z" fill="white"/>
</mask>
<g mask="url(#mask0_284_11)">
<path d="M429.546 68.5454H20.4546V477.636H429.546V68.5454Z" fill="#FF6569"/>
</g>
<mask id="mask1_284_11" style="mask-type:luminance" maskUnits="userSpaceOnUse" x="0" y="0" width="450" height="478">
<path d="M20.4545 273.091C20.4545 386.058 112.033 477.636 225 477.636C337.967 477.636 429.545 386.058 429.545 273.091H450V0.363525H0V273.091H20.4545Z" fill="white"/>
</mask>
<g mask="url(#mask1_284_11)">
<path d="M265.909 308.223V339.568H272.727C340.508 339.568 395.454 394.515 395.454 462.295V477.636H54.5454V462.295C54.5454 394.515 109.492 339.568 177.273 339.568H184.091V308.223C154.709 294.265 133.589 265.739 130.066 231.979C120.137 230.576 112.5 222.043 112.5 211.727V187.863C112.5 177.728 119.871 169.315 129.545 167.692V157.182C129.545 104.464 172.282 61.7271 225 61.7271C277.718 61.7271 320.454 104.464 320.454 157.182V167.692C330.129 169.315 337.5 177.728 337.5 187.863V211.727C337.5 222.043 329.863 230.576 319.934 231.979C316.411 265.739 295.291 294.265 265.909 308.223Z" fill="#D0C6AC"/>
<mask id="mask2_284_11" style="mask-type:luminance" maskUnits="userSpaceOnUse" x="54" y="61" width="342" height="417">
<path d="M265.909 308.223V339.568H272.727C340.508 339.568 395.454 394.515 395.454 462.295V477.636H54.5454V462.295C54.5454 394.515 109.492 339.568 177.273 339.568H184.091V308.223C154.709 294.265 133.589 265.739 130.066 231.979C120.137 230.576 112.5 222.043 112.5 211.727V187.863C112.5 177.728 119.871 169.315 129.545 167.692V157.182C129.545 104.464 172.282 61.7271 225 61.7271C277.718 61.7271 320.454 104.464 320.454 157.182V167.692C330.129 169.315 337.5 177.728 337.5 187.863V211.727C337.5 222.043 329.863 230.576 319.934 231.979C316.411 265.739 295.291 294.265 265.909 308.223Z" fill="white"/>
</mask>
<g mask="url(#mask2_284_11)">
<path d="M450 61.7271H0V477.636H450V61.7271Z" fill="#FFDBB4"/>
</g>
<mask id="mask3_284_11" style="mask-type:luminance" maskUnits="userSpaceOnUse" x="54" y="61" width="342" height="417">
<path d="M265.909 308.223V339.568H272.727C340.508 339.568 395.454 394.515 395.454 462.295V477.636H54.5454V462.295C54.5454 394.515 109.492 339.568 177.273 339.568H184.091V308.223C154.709 294.265 133.589 265.739 130.066 231.979C120.137 230.576 112.5 222.043 112.5 211.727V187.863C112.5 177.728 119.871 169.315 129.545 167.692V157.182C129.545 104.464 172.282 61.7271 225 61.7271C277.718 61.7271 320.454 104.464 320.454 157.182V167.692C330.129 169.315 337.5 177.728 337.5 187.863V211.727C337.5 222.043 329.863 230.576 319.934 231.979C316.411 265.739 295.291 294.265 265.909 308.223Z" fill="white"/>
</mask>
<g mask="url(#mask3_284_11)">
<path fill-rule="evenodd" clip-rule="evenodd" d="M320.454 196.386V235.591C320.454 288.309 277.718 331.045 225 331.045C172.282 331.045 129.545 288.309 129.545 235.591V196.386V221.954C129.545 274.673 172.282 317.409 225 317.409C277.718 317.409 320.454 274.673 320.454 221.954V196.386Z" fill="black" fill-opacity="0.1"/>
</g>
<path fill-rule="evenodd" clip-rule="evenodd" d="M184.091 312.416C153.548 315.834 130.022 325.168 129.553 349.19C85.4768 367.809 54.5454 411.44 54.5454 462.295V477.636H395.454V462.295C395.454 411.44 364.523 367.809 320.447 349.19C319.978 325.168 296.452 315.834 265.909 312.416V344.682C265.909 367.275 247.593 385.591 225 385.591C202.406 385.591 184.091 367.275 184.091 344.682V312.416Z" fill="#B7C1DB"/>
<mask id="mask4_284_11" style="mask-type:luminance" maskUnits="userSpaceOnUse" x="54" y="312" width="342" height="166">
<path fill-rule="evenodd" clip-rule="evenodd" d="M184.091 312.416C153.548 315.834 130.022 325.168 129.553 349.19C85.4768 367.809 54.5454 411.44 54.5454 462.295V477.636H395.454V462.295C395.454 411.44 364.523 367.809 320.447 349.19C319.978 325.168 296.452 315.834 265.909 312.416V344.682C265.909 367.275 247.593 385.591 225 385.591C202.406 385.591 184.091 367.275 184.091 344.682V312.416Z" fill="white"/>
</mask>
<g mask="url(#mask4_284_11)">
<path d="M450 290.136H0V477.636H450V290.136Z" fill="white"/>
</g>
<mask id="mask5_284_11" style="mask-type:luminance" maskUnits="userSpaceOnUse" x="54" y="312" width="342" height="166">
<path fill-rule="evenodd" clip-rule="evenodd" d="M184.091 312.416C153.548 315.834 130.022 325.168 129.553 349.19C85.4768 367.809 54.5454 411.44 54.5454 462.295V477.636H395.454V462.295C395.454 411.44 364.523 367.809 320.447 349.19C319.978 325.168 296.452 315.834 265.909 312.416V344.682C265.909 367.275 247.593 385.591 225 385.591C202.406 385.591 184.091 367.275 184.091 344.682V312.416Z" fill="white"/>
</mask>
<g mask="url(#mask5_284_11)">
<path fill-rule="evenodd" clip-rule="evenodd" d="M173.864 395.373V477.636H161.932V389.256C165.688 391.489 169.682 393.535 173.864 395.373ZM288.068 389.256V458.034C288.068 461.329 285.397 464 282.102 464C278.807 464 276.136 461.329 276.136 458.034V395.373C280.318 393.535 284.312 391.489 288.068 389.256Z" fill="#F4F4F4"/>
</g>
<mask id="mask6_284_11" style="mask-type:luminance" maskUnits="userSpaceOnUse" x="54" y="312" width="342" height="166">
<path fill-rule="evenodd" clip-rule="evenodd" d="M184.091 312.416C153.548 315.834 130.022 325.168 129.553 349.19C85.4768 367.809 54.5454 411.44 54.5454 462.295V477.636H395.454V462.295C395.454 411.44 364.523 367.809 320.447 349.19C319.978 325.168 296.452 315.834 265.909 312.416V344.682C265.909 367.275 247.593 385.591 225 385.591C202.406 385.591 184.091 367.275 184.091 344.682V312.416Z" fill="white"/>
</mask>
<g mask="url(#mask6_284_11)">
<path fill-rule="evenodd" clip-rule="evenodd" d="M155.046 311.826C129.391 316.678 111.648 326.346 111.648 345.206C111.648 378.807 167.962 406.046 225 406.046C282.038 406.046 338.352 378.807 338.352 345.206C338.352 326.346 320.609 316.678 294.954 311.826C310.44 317.536 320.455 327.135 320.455 343.108C320.455 377.868 273.032 406.046 225 406.046C176.968 406.046 129.545 377.868 129.545 343.108C129.545 327.135 139.56 317.536 155.046 311.826Z" fill="black" fill-opacity="0.16"/>
</g>
<path d="M201.136 256.045C201.136 265.202 211.633 271.386 225 271.386C238.367 271.386 248.864 265.202 248.864 256.045C248.864 254.163 247.245 252.636 245.454 252.636C243.251 252.636 242.267 254.179 242.045 256.045C239.928 261.053 234.687 264.084 225 264.568C215.312 264.084 210.072 261.053 207.954 256.045C207.732 254.179 206.749 252.636 204.545 252.636C202.755 252.636 201.136 254.163 201.136 256.045Z" fill="black" fill-opacity="0.6"/>
<path fill-rule="evenodd" clip-rule="evenodd" d="M204.545 221.955C204.545 229.486 213.703 235.591 225 235.591C236.297 235.591 245.455 229.486 245.455 221.955" fill="black" fill-opacity="0.16"/>
<path d="M180.682 201.5C186.33 201.5 190.909 196.921 190.909 191.273C190.909 185.624 186.33 181.045 180.682 181.045C175.033 181.045 170.455 185.624 170.455 191.273C170.455 196.921 175.033 201.5 180.682 201.5Z" fill="black" fill-opacity="0.6"/>
<path d="M269.318 201.5C274.967 201.5 279.546 196.921 279.546 191.273C279.546 185.624 274.967 181.045 269.318 181.045C263.67 181.045 259.091 185.624 259.091 191.273C259.091 196.921 263.67 201.5 269.318 201.5Z" fill="black" fill-opacity="0.6"/>
<path fill-rule="evenodd" clip-rule="evenodd" d="M204.707 169.326C204.714 169.312 204.714 169.312 204.707 169.326V169.326ZM162.415 148.668C158.379 148.214 154.136 149.515 151.462 152.816C150.456 154.057 148.813 157.043 148.889 158.64C148.918 159.247 149.273 159.281 150.805 159.646C153.61 160.315 158.475 157.747 161.637 157.99C166.038 158.327 170.239 160.368 174.051 162.556C180.594 166.31 188.291 174.216 196.368 173.802C196.97 173.772 205.607 170.839 203.887 169.162C203.347 168.337 198.715 167.239 197.918 166.841C194.216 164.994 190.474 162.669 186.936 160.503C179.218 155.779 171.69 149.7 162.415 148.668Z" fill="black" fill-opacity="0.6"/>
<path fill-rule="evenodd" clip-rule="evenodd" d="M245.506 169.326C245.499 169.312 245.499 169.312 245.506 169.326V169.326ZM287.907 148.668C291.943 148.214 296.187 149.515 298.861 152.816C299.867 154.057 301.509 157.043 301.433 158.64C301.405 159.247 301.05 159.281 299.518 159.646C296.713 160.315 291.848 157.747 288.686 157.99C284.285 158.327 280.084 160.368 276.272 162.556C269.729 166.31 262.032 174.216 253.954 173.802C253.353 173.772 244.716 170.839 246.436 169.162C246.976 168.337 251.608 167.239 252.405 166.841C256.107 164.994 259.848 162.669 263.386 160.503C271.105 155.779 278.633 149.7 287.907 148.668Z" fill="black" fill-opacity="0.6"/>
<mask id="mask7_284_11" style="mask-type:luminance" maskUnits="userSpaceOnUse" x="0" y="0" width="450" height="478">
<path d="M450 0.363525H0V477.636H450V0.363525Z" fill="white"/>
</mask>
<g mask="url(#mask7_284_11)">
<path fill-rule="evenodd" clip-rule="evenodd" d="M254.707 290.424C250.423 294.334 245.859 296.093 240.09 294.863C239.097 294.652 235.05 287.127 225 287.127C214.949 287.127 210.902 294.652 209.909 294.863C204.14 296.093 199.576 294.334 195.292 290.424C187.238 283.072 180.54 272.935 184.564 261.874C186.662 256.109 190.073 249.779 196.279 247.942C202.906 245.981 212.211 247.939 218.889 246.599C221.052 246.165 223.416 245.394 225 244.114C226.583 245.394 228.948 246.165 231.11 246.599C237.789 247.939 247.093 245.981 253.72 247.942C259.926 249.779 263.337 256.109 265.435 261.874C269.46 272.935 262.762 283.072 254.707 290.424ZM320.593 167.409C314.78 181.728 317.025 199.554 315.949 214.584C315.075 226.801 312.506 245.112 301.658 253.002C296.111 257.037 286.013 263.818 278.764 261.927C273.775 260.625 273.242 246.313 266.685 240.955C259.247 234.879 249.96 232.209 240.595 232.621C236.554 232.799 228.382 232.757 225 235.865C221.618 232.757 213.446 232.799 209.405 232.621C200.04 232.209 190.752 234.879 183.315 240.955C176.757 246.313 176.225 260.625 171.236 261.927C163.987 263.818 153.889 257.037 148.341 253.002C137.493 245.112 134.925 226.801 134.05 214.584C132.975 199.554 135.22 181.728 129.407 167.409C126.579 167.409 128.444 194.902 128.444 194.902V229.6C128.498 255.659 144.776 294.663 180.866 309.556C189.692 313.199 209.685 319.114 225 319.114C240.314 319.114 260.307 313.762 269.134 310.119C305.224 295.226 321.501 255.659 321.556 229.6V194.902C321.556 194.902 323.421 167.409 320.593 167.409Z" fill="#4A312C"/>
<mask id="mask8_284_11" style="mask-type:luminance" maskUnits="userSpaceOnUse" x="127" y="167" width="196" height="153">
<path fill-rule="evenodd" clip-rule="evenodd" d="M254.707 290.424C250.423 294.334 245.859 296.093 240.09 294.863C239.097 294.652 235.05 287.127 225 287.127C214.949 287.127 210.902 294.652 209.909 294.863C204.14 296.093 199.576 294.334 195.292 290.424C187.238 283.072 180.54 272.935 184.564 261.874C186.662 256.109 190.073 249.779 196.279 247.942C202.906 245.981 212.211 247.939 218.889 246.599C221.052 246.165 223.416 245.394 225 244.114C226.583 245.394 228.948 246.165 231.11 246.599C237.789 247.939 247.093 245.981 253.72 247.942C259.926 249.779 263.337 256.109 265.435 261.874C269.46 272.935 262.762 283.072 254.707 290.424ZM320.593 167.409C314.78 181.728 317.025 199.554 315.949 214.584C315.075 226.801 312.506 245.112 301.658 253.002C296.111 257.037 286.013 263.818 278.764 261.927C273.775 260.625 273.242 246.313 266.685 240.955C259.247 234.879 249.96 232.209 240.595 232.621C236.554 232.799 228.382 232.757 225 235.865C221.618 232.757 213.446 232.799 209.405 232.621C200.04 232.209 190.752 234.879 183.315 240.955C176.757 246.313 176.225 260.625 171.236 261.927C163.987 263.818 153.889 257.037 148.341 253.002C137.493 245.112 134.925 226.801 134.05 214.584C132.975 199.554 135.22 181.728 129.407 167.409C126.579 167.409 128.444 194.902 128.444 194.902V229.6C128.498 255.659 144.776 294.663 180.866 309.556C189.692 313.199 209.685 319.114 225 319.114C240.314 319.114 260.307 313.762 269.134 310.119C305.224 295.226 321.501 255.659 321.556 229.6V194.902C321.556 194.902 323.421 167.409 320.593 167.409Z" fill="white"/>
</mask>
<g mask="url(#mask8_284_11)">
<path d="M477.273 123.091H27.2727V539H477.273V123.091Z" fill="#2C1B18"/>
</g>
<path fill-rule="evenodd" clip-rule="evenodd" d="M283.481 60.0331C249.07 40.0906 214.992 43.3556 189.267 49.8465C163.542 56.3374 148.324 74.7693 135.267 102.036C128.856 115.425 125.056 131.258 124.471 146.07C124.241 151.886 125.026 157.889 126.593 163.489C127.167 165.545 130.267 172.671 131.118 166.913C131.401 164.996 130.364 162.351 130.264 160.314C130.132 157.641 130.274 154.933 130.456 152.264C130.797 147.274 131.686 142.379 133.269 137.622C135.532 130.824 138.411 123.454 142.819 117.718C153.73 103.524 172.617 102.715 187.613 94.9038C186.312 97.2988 181.295 101.176 183.033 103.875C184.233 105.74 188.777 105.175 190.947 105.115C196.655 104.959 202.389 103.965 208.027 103.16C216.913 101.889 225.239 99.3155 233.602 96.1899C240.448 93.6302 248.267 91.2597 253.412 85.8303C261.715 94.4343 272.403 102.525 283.074 107.994C292.65 112.902 308.094 115.354 313.948 125.308C320.877 137.093 317.689 151.569 319.805 164.342C320.61 169.2 322.439 169.091 323.44 164.746C325.139 157.366 325.942 149.699 325.401 142.112C324.176 124.985 317.892 79.9756 283.481 60.0331Z" fill="#28354B"/>
<mask id="mask9_284_11" style="mask-type:luminance" maskUnits="userSpaceOnUse" x="124" y="44" width="202" height="126">
<path fill-rule="evenodd" clip-rule="evenodd" d="M283.481 60.0331C249.07 40.0906 214.992 43.3556 189.267 49.8465C163.542 56.3374 148.324 74.7693 135.267 102.036C128.856 115.425 125.056 131.258 124.471 146.07C124.241 151.886 125.026 157.889 126.593 163.489C127.167 165.545 130.267 172.671 131.118 166.913C131.401 164.996 130.364 162.351 130.264 160.314C130.132 157.641 130.274 154.933 130.456 152.264C130.797 147.274 131.686 142.379 133.269 137.622C135.532 130.824 138.411 123.454 142.819 117.718C153.73 103.524 172.617 102.715 187.613 94.9038C186.312 97.2988 181.295 101.176 183.033 103.875C184.233 105.74 188.777 105.175 190.947 105.115C196.655 104.959 202.389 103.965 208.027 103.16C216.913 101.889 225.239 99.3155 233.602 96.1899C240.448 93.6302 248.267 91.2597 253.412 85.8303C261.715 94.4343 272.403 102.525 283.074 107.994C292.65 112.902 308.094 115.354 313.948 125.308C320.877 137.093 317.689 151.569 319.805 164.342C320.61 169.2 322.439 169.091 323.44 164.746C325.139 157.366 325.942 149.699 325.401 142.112C324.176 124.985 317.892 79.9756 283.481 60.0331Z" fill="white"/>
</mask>
<g mask="url(#mask9_284_11)">
<path d="M448.295 0.363525H-1.70483V477.636H448.295V0.363525Z" fill="#2C1B18"/>
</g>
<g filter="url(#filter0_d_284_11)">
<path fill-rule="evenodd" clip-rule="evenodd" d="M241.133 173.194C247.807 159.668 261.737 150.364 277.841 150.364C293.045 150.364 306.312 158.658 313.363 170.968C313.722 170.87 314.099 170.818 314.489 170.818H328.125C330.478 170.818 332.386 172.726 332.386 175.079C332.386 177.433 330.478 179.341 328.125 179.341H316.982C318.132 183.116 318.75 187.122 318.75 191.273C318.75 213.866 300.434 232.182 277.841 232.182C255.247 232.182 236.932 213.866 236.932 191.273C236.932 188.849 237.142 186.474 237.547 184.167C237.403 176.708 231.671 170.818 224.765 170.818C218.396 170.818 213.025 175.829 212.117 182.46C212.74 185.299 213.068 188.247 213.068 191.273C213.068 213.866 194.752 232.182 172.159 232.182C149.566 232.182 131.25 213.866 131.25 191.273C131.25 187.122 131.868 183.116 133.017 179.341H121.875C119.521 179.341 117.614 177.433 117.614 175.079C117.614 172.726 119.521 170.818 121.875 170.818H135.511C135.901 170.818 136.278 170.87 136.636 170.968C143.688 158.658 156.955 150.364 172.159 150.364C188.1 150.364 201.912 159.481 208.663 172.787C212.204 167.476 218.096 164 224.765 164C231.604 164 237.626 167.655 241.133 173.194ZM172.159 225.364C190.987 225.364 206.25 210.101 206.25 191.273C206.25 172.445 190.987 157.182 172.159 157.182C153.331 157.182 138.068 172.445 138.068 191.273C138.068 210.101 153.331 225.364 172.159 225.364ZM277.841 225.364C296.669 225.364 311.932 210.101 311.932 191.273C311.932 172.445 296.669 157.182 277.841 157.182C259.013 157.182 243.75 172.445 243.75 191.273C243.75 210.101 259.013 225.364 277.841 225.364Z" fill="black"/>
</g>
<path fill-rule="evenodd" clip-rule="evenodd" d="M241.133 173.194C247.807 159.668 261.737 150.364 277.841 150.364C293.045 150.364 306.312 158.658 313.363 170.968C313.722 170.87 314.099 170.818 314.489 170.818H328.125C330.478 170.818 332.386 172.726 332.386 175.079C332.386 177.433 330.478 179.341 328.125 179.341H316.982C318.132 183.116 318.75 187.122 318.75 191.273C318.75 213.866 300.434 232.182 277.841 232.182C255.247 232.182 236.932 213.866 236.932 191.273C236.932 188.849 237.142 186.474 237.547 184.167C237.403 176.708 231.671 170.818 224.765 170.818C218.396 170.818 213.025 175.829 212.117 182.46C212.74 185.299 213.068 188.247 213.068 191.273C213.068 213.866 194.752 232.182 172.159 232.182C149.566 232.182 131.25 213.866 131.25 191.273C131.25 187.122 131.868 183.116 133.017 179.341H121.875C119.521 179.341 117.614 177.433 117.614 175.079C117.614 172.726 119.521 170.818 121.875 170.818H135.511C135.901 170.818 136.278 170.87 136.636 170.968C143.688 158.658 156.955 150.364 172.159 150.364C188.1 150.364 201.912 159.481 208.663 172.787C212.204 167.476 218.096 164 224.765 164C231.604 164 237.626 167.655 241.133 173.194ZM172.159 225.364C190.987 225.364 206.25 210.101 206.25 191.273C206.25 172.445 190.987 157.182 172.159 157.182C153.331 157.182 138.068 172.445 138.068 191.273C138.068 210.101 153.331 225.364 172.159 225.364ZM277.841 225.364C296.669 225.364 311.932 210.101 311.932 191.273C311.932 172.445 296.669 157.182 277.841 157.182C259.013 157.182 243.75 172.445 243.75 191.273C243.75 210.101 259.013 225.364 277.841 225.364Z" fill="#252C2F"/>
</g>
</g>
<defs>
<filter id="filter0_d_284_11" x="117.614" y="150.364" width="214.773" height="85.2272" filterUnits="userSpaceOnUse" color-interpolation-filters="sRGB">
<feFlood flood-opacity="0" result="BackgroundImageFix"/>
<feColorMatrix in="SourceAlpha" type="matrix" values="0 0 0 0 0 0 0 0 0 0 0 0 0 0 0 0 0 0 127 0" result="hardAlpha"/>
<feOffset dy="3.40909"/>
<feColorMatrix type="matrix" values="0 0 0 0 0 0 0 0 0 0 0 0 0 0 0 0 0 0 0.1 0"/>
<feBlend mode="normal" in2="BackgroundImageFix" result="effect1_dropShadow_284_11"/>
<feBlend mode="normal" in="SourceGraphic" in2="effect1_dropShadow_284_11" result="shape"/>
</filter>
</defs>
</svg>
