<svg width="450" height="478" fill="none" xmlns="http://www.w3.org/2000/svg"><path d="M225 477.636c112.967 0 204.546-91.578 204.546-204.545 0-112.967-91.579-204.546-204.546-204.546S20.455 160.124 20.455 273.091 112.033 477.636 225 477.636Z" fill="#E6E6E6"/><mask id="a" style="mask-type:luminance" maskUnits="userSpaceOnUse" x="20" y="68" width="410" height="410"><path d="M225 477.636c112.967 0 204.546-91.578 204.546-204.545 0-112.967-91.579-204.546-204.546-204.546S20.455 160.124 20.455 273.091 112.033 477.636 225 477.636Z" fill="#fff"/></mask><g mask="url(#a)"><path d="M429.546 68.545H20.455v409.091h409.091V68.546Z" fill="#FF6569"/></g><mask id="b" style="mask-type:luminance" maskUnits="userSpaceOnUse" x="0" y="0" width="450" height="478"><path d="M20.454 273.091c0 112.967 91.579 204.545 204.546 204.545s204.545-91.578 204.545-204.545H450V.364H0V273.09h20.454Z" fill="#fff"/></mask><g mask="url(#b)"><path d="M265.909 308.223v31.345h6.818c67.781 0 122.727 54.947 122.727 122.727v15.341H54.545v-15.341c0-67.78 54.947-122.727 122.728-122.727h6.818v-31.345c-29.382-13.958-50.502-42.484-54.025-76.244-9.929-1.403-17.566-9.936-17.566-20.252v-23.864c0-10.135 7.371-18.548 17.045-20.171v-10.51c0-52.718 42.737-95.455 95.455-95.455 52.718 0 95.454 42.737 95.454 95.455v10.51c9.675 1.623 17.046 10.036 17.046 20.171v23.864c0 10.316-7.637 18.849-17.566 20.252-3.523 33.76-24.643 62.286-54.025 76.244Z" fill="#D0C6AC"/><mask id="c" style="mask-type:luminance" maskUnits="userSpaceOnUse" x="54" y="61" width="342" height="417"><path d="M265.909 308.223v31.345h6.818c67.781 0 122.727 54.947 122.727 122.727v15.341H54.545v-15.341c0-67.78 54.947-122.727 122.728-122.727h6.818v-31.345c-29.382-13.958-50.502-42.484-54.025-76.244-9.929-1.403-17.566-9.936-17.566-20.252v-23.864c0-10.135 7.371-18.548 17.045-20.171v-10.51c0-52.718 42.737-95.455 95.455-95.455 52.718 0 95.454 42.737 95.454 95.455v10.51c9.675 1.623 17.046 10.036 17.046 20.171v23.864c0 10.316-7.637 18.849-17.566 20.252-3.523 33.76-24.643 62.286-54.025 76.244Z" fill="#fff"/></mask><g mask="url(#c)"><path d="M450 61.727H0v415.909h450V61.727Z" fill="#EDB98A"/></g><mask id="d" style="mask-type:luminance" maskUnits="userSpaceOnUse" x="54" y="61" width="342" height="417"><path d="M265.909 308.223v31.345h6.818c67.781 0 122.727 54.947 122.727 122.727v15.341H54.545v-15.341c0-67.78 54.947-122.727 122.728-122.727h6.818v-31.345c-29.382-13.958-50.502-42.484-54.025-76.244-9.929-1.403-17.566-9.936-17.566-20.252v-23.864c0-10.135 7.371-18.548 17.045-20.171v-10.51c0-52.718 42.737-95.455 95.455-95.455 52.718 0 95.454 42.737 95.454 95.455v10.51c9.675 1.623 17.046 10.036 17.046 20.171v23.864c0 10.316-7.637 18.849-17.566 20.252-3.523 33.76-24.643 62.286-54.025 76.244Z" fill="#fff"/></mask><g mask="url(#d)"><path fill-rule="evenodd" clip-rule="evenodd" d="M320.454 196.386v39.205c0 52.718-42.736 95.454-95.454 95.454-52.718 0-95.455-42.736-95.455-95.454v-39.205 25.568c0 52.719 42.737 95.455 95.455 95.455 52.718 0 95.454-42.736 95.454-95.455v-25.568Z" fill="#000" fill-opacity=".1"/></g><path fill-rule="evenodd" clip-rule="evenodd" d="M184.091 312.416c-30.543 3.418-54.069 12.752-54.538 36.774-44.076 18.619-75.008 62.25-75.008 113.105v15.341h340.909v-15.341c0-50.855-30.931-94.486-75.007-113.105-.469-24.022-23.995-33.356-54.538-36.774v32.266c0 22.593-18.316 40.909-40.909 40.909-22.594 0-40.909-18.316-40.909-40.909v-32.266Z" fill="#B7C1DB"/><mask id="e" style="mask-type:luminance" maskUnits="userSpaceOnUse" x="54" y="312" width="342" height="166"><path fill-rule="evenodd" clip-rule="evenodd" d="M184.091 312.416c-30.543 3.418-54.069 12.752-54.538 36.774-44.076 18.619-75.008 62.25-75.008 113.105v15.341h340.909v-15.341c0-50.855-30.931-94.486-75.007-113.105-.469-24.022-23.995-33.356-54.538-36.774v32.266c0 22.593-18.316 40.909-40.909 40.909-22.594 0-40.909-18.316-40.909-40.909v-32.266Z" fill="#fff"/></mask><g mask="url(#e)"><path d="M450 290.136H0v187.5h450v-187.5Z" fill="#262E33"/></g><mask id="f" style="mask-type:luminance" maskUnits="userSpaceOnUse" x="54" y="312" width="342" height="166"><path fill-rule="evenodd" clip-rule="evenodd" d="M184.091 312.416c-30.543 3.418-54.069 12.752-54.538 36.774-44.076 18.619-75.008 62.25-75.008 113.105v15.341h340.909v-15.341c0-50.855-30.931-94.486-75.007-113.105-.469-24.022-23.995-33.356-54.538-36.774v32.266c0 22.593-18.316 40.909-40.909 40.909-22.594 0-40.909-18.316-40.909-40.909v-32.266Z" fill="#fff"/></mask><g mask="url(#f)"><path fill-rule="evenodd" clip-rule="evenodd" d="M173.864 395.373v82.263h-11.932v-88.38a109.883 109.883 0 0 0 11.932 6.117Zm114.204-6.117v68.778a5.966 5.966 0 1 1-11.932 0v-62.661a109.883 109.883 0 0 0 11.932-6.117Z" fill="#F4F4F4"/></g><mask id="g" style="mask-type:luminance" maskUnits="userSpaceOnUse" x="54" y="312" width="342" height="166"><path fill-rule="evenodd" clip-rule="evenodd" d="M184.091 312.416c-30.543 3.418-54.069 12.752-54.538 36.774-44.076 18.619-75.008 62.25-75.008 113.105v15.341h340.909v-15.341c0-50.855-30.931-94.486-75.007-113.105-.469-24.022-23.995-33.356-54.538-36.774v32.266c0 22.593-18.316 40.909-40.909 40.909-22.594 0-40.909-18.316-40.909-40.909v-32.266Z" fill="#fff"/></mask><g mask="url(#g)"><path fill-rule="evenodd" clip-rule="evenodd" d="M155.046 311.826c-25.655 4.852-43.398 14.52-43.398 33.38 0 33.601 56.314 60.84 113.352 60.84 57.038 0 113.352-27.239 113.352-60.84 0-18.86-17.743-28.528-43.398-33.38 15.486 5.71 25.501 15.309 25.501 31.282 0 34.76-47.423 62.938-95.455 62.938s-95.455-28.178-95.455-62.938c0-15.973 10.015-25.572 25.501-31.282Z" fill="#000" fill-opacity=".16"/></g><path fill-rule="evenodd" clip-rule="evenodd" d="M192.814 254.559c1.804 16.179 15.526 28.759 32.186 28.759 16.712 0 30.467-12.658 32.202-28.909.139-1.308-1.321-3.477-3.152-3.477h-57.879c-1.842 0-3.537 2.008-3.357 3.627Z" fill="#000" fill-opacity=".7"/><mask id="h" style="mask-type:luminance" maskUnits="userSpaceOnUse" x="192" y="250" width="66" height="34"><path fill-rule="evenodd" clip-rule="evenodd" d="M192.814 254.559c1.804 16.179 15.526 28.759 32.186 28.759 16.712 0 30.467-12.658 32.202-28.909.139-1.308-1.321-3.477-3.152-3.477h-57.879c-1.842 0-3.537 2.008-3.357 3.627Z" fill="#fff"/></mask><g mask="url(#h)"><path d="M243.75 232.182h-35.796a8.522 8.522 0 0 0-8.522 8.522v10.228a8.522 8.522 0 0 0 8.522 8.522h35.796a8.522 8.522 0 0 0 8.523-8.522v-10.228a8.522 8.522 0 0 0-8.523-8.522Z" fill="#fff"/></g><mask id="i" style="mask-type:luminance" maskUnits="userSpaceOnUse" x="192" y="250" width="66" height="34"><path fill-rule="evenodd" clip-rule="evenodd" d="M192.814 254.559c1.804 16.179 15.526 28.759 32.186 28.759 16.712 0 30.467-12.658 32.202-28.909.139-1.308-1.321-3.477-3.152-3.477h-57.879c-1.842 0-3.537 2.008-3.357 3.627Z" fill="#fff"/></mask><g mask="url(#i)" fill="#FF4F6D"><path d="M216.477 307.182c10.356 0 18.75-8.395 18.75-18.75 0-10.356-8.394-18.75-18.75-18.75-10.355 0-18.75 8.394-18.75 18.75 0 10.355 8.395 18.75 18.75 18.75Z"/><path d="M233.523 307.182c10.355 0 18.75-8.395 18.75-18.75 0-10.356-8.395-18.75-18.75-18.75-10.356 0-18.75 8.394-18.75 18.75 0 10.355 8.394 18.75 18.75 18.75Z"/></g><path fill-rule="evenodd" clip-rule="evenodd" d="M204.546 221.954c0 7.532 9.157 13.637 20.454 13.637s20.455-6.105 20.455-13.637" fill="#000" fill-opacity=".16"/><path d="M180.682 201.5c5.648 0 10.227-4.579 10.227-10.228 0-5.648-4.579-10.227-10.227-10.227-5.649 0-10.227 4.579-10.227 10.227 0 5.649 4.578 10.228 10.227 10.228ZM269.318 201.5c5.649 0 10.227-4.579 10.227-10.228 0-5.648-4.578-10.227-10.227-10.227-5.648 0-10.227 4.579-10.227 10.227 0 5.649 4.579 10.228 10.227 10.228ZM156.188 169.384c6.673-9.39 24.968-14.655 40.726-10.786a3.409 3.409 0 1 0 1.626-6.621c-18.301-4.494-39.485 1.603-47.91 13.457a3.41 3.41 0 0 0 .804 4.754 3.41 3.41 0 0 0 4.754-.804ZM293.813 169.384c-6.673-9.39-24.968-14.655-40.727-10.786a3.408 3.408 0 1 1-1.626-6.621c18.301-4.494 39.486 1.603 47.91 13.457a3.409 3.409 0 1 1-5.557 3.95Z" fill="#000" fill-opacity=".6"/><mask id="j" style="mask-type:luminance" maskUnits="userSpaceOnUse" x="0" y="0" width="450" height="478"><path d="M450 .364H0v477.272h450V.364Z" fill="#fff"/></mask><g mask="url(#j)"><path fill-rule="evenodd" clip-rule="evenodd" d="M283.481 60.033c-34.411-19.942-68.488-16.677-94.213-10.187-25.726 6.491-40.944 24.923-54.001 52.19-6.411 13.389-10.211 29.222-10.796 44.034-.229 5.816.555 11.819 2.122 17.419.575 2.056 3.674 9.182 4.525 3.424.283-1.917-.754-4.562-.854-6.599-.131-2.673.01-5.381.192-8.05.341-4.99 1.23-9.885 2.813-14.642 2.263-6.798 5.142-14.168 9.551-19.904 10.91-14.194 29.797-15.003 44.793-22.814-1.301 2.395-6.318 6.272-4.58 8.971 1.2 1.865 5.745 1.3 7.914 1.24 5.708-.156 11.442-1.15 17.081-1.955 8.886-1.271 17.212-3.844 25.574-6.97 6.846-2.56 14.665-4.93 19.811-10.36 8.303 8.604 18.99 16.695 29.662 22.164 9.576 4.908 25.02 7.36 30.873 17.314 6.929 11.785 3.741 26.261 5.857 39.034.805 4.858 2.634 4.749 3.635.404 1.699-7.38 2.502-15.047 1.961-22.634-1.224-17.127-7.509-62.136-41.92-82.079Z" fill="#28354B"/><mask id="k" style="mask-type:luminance" maskUnits="userSpaceOnUse" x="124" y="44" width="202" height="126"><path fill-rule="evenodd" clip-rule="evenodd" d="M283.481 60.033c-34.411-19.942-68.488-16.677-94.213-10.187-25.726 6.491-40.944 24.923-54.001 52.19-6.411 13.389-10.211 29.222-10.796 44.034-.229 5.816.555 11.819 2.122 17.419.575 2.056 3.674 9.182 4.525 3.424.283-1.917-.754-4.562-.854-6.599-.131-2.673.01-5.381.192-8.05.341-4.99 1.23-9.885 2.813-14.642 2.263-6.798 5.142-14.168 9.551-19.904 10.91-14.194 29.797-15.003 44.793-22.814-1.301 2.395-6.318 6.272-4.58 8.971 1.2 1.865 5.745 1.3 7.914 1.24 5.708-.156 11.442-1.15 17.081-1.955 8.886-1.271 17.212-3.844 25.574-6.97 6.846-2.56 14.665-4.93 19.811-10.36 8.303 8.604 18.99 16.695 29.662 22.164 9.576 4.908 25.02 7.36 30.873 17.314 6.929 11.785 3.741 26.261 5.857 39.034.805 4.858 2.634 4.749 3.635.404 1.699-7.38 2.502-15.047 1.961-22.634-1.224-17.127-7.509-62.136-41.92-82.079Z" fill="#fff"/></mask><g mask="url(#k)"><path d="M448.296.364h-450v477.272h450V.364Z" fill="#4A312C"/></g><g filter="url(#l)"><path fill-rule="evenodd" clip-rule="evenodd" d="M241.133 173.194c6.674-13.526 20.604-22.83 36.708-22.83 15.204 0 28.471 8.294 35.523 20.604.358-.098.735-.15 1.125-.15h13.636a4.26 4.26 0 1 1 0 8.523h-11.142a40.914 40.914 0 0 1 1.767 11.932c0 22.593-18.316 40.909-40.909 40.909-22.594 0-40.909-18.316-40.909-40.909 0-2.424.211-4.799.615-7.106-.144-7.459-5.876-13.349-12.781-13.349-6.37 0-11.741 5.011-12.649 11.642.623 2.839.951 5.787.951 8.813 0 22.593-18.315 40.909-40.909 40.909-22.593 0-40.909-18.316-40.909-40.909 0-4.151.618-8.157 1.767-11.932h-11.142a4.262 4.262 0 0 1 0-8.523h13.636c.39 0 .767.052 1.126.15 7.051-12.31 20.318-20.604 35.522-20.604 15.941 0 29.753 9.117 36.504 22.423 3.541-5.311 9.433-8.787 16.103-8.787 6.839 0 12.86 3.655 16.367 9.194Zm-68.974 52.17c18.828 0 34.091-15.263 34.091-34.091 0-18.828-15.263-34.091-34.091-34.091-18.828 0-34.091 15.263-34.091 34.091 0 18.828 15.263 34.091 34.091 34.091Zm105.682 0c18.828 0 34.091-15.263 34.091-34.091 0-18.828-15.263-34.091-34.091-34.091-18.828 0-34.091 15.263-34.091 34.091 0 18.828 15.263 34.091 34.091 34.091Z" fill="#000"/></g><path fill-rule="evenodd" clip-rule="evenodd" d="M241.133 173.194c6.674-13.526 20.604-22.83 36.708-22.83 15.204 0 28.471 8.294 35.523 20.604.358-.098.735-.15 1.125-.15h13.636a4.26 4.26 0 1 1 0 8.523h-11.142a40.914 40.914 0 0 1 1.767 11.932c0 22.593-18.316 40.909-40.909 40.909-22.594 0-40.909-18.316-40.909-40.909 0-2.424.211-4.799.615-7.106-.144-7.459-5.876-13.349-12.781-13.349-6.37 0-11.741 5.011-12.649 11.642.623 2.839.951 5.787.951 8.813 0 22.593-18.315 40.909-40.909 40.909-22.593 0-40.909-18.316-40.909-40.909 0-4.151.618-8.157 1.767-11.932h-11.142a4.262 4.262 0 0 1 0-8.523h13.636c.39 0 .767.052 1.126.15 7.051-12.31 20.318-20.604 35.522-20.604 15.941 0 29.753 9.117 36.504 22.423 3.541-5.311 9.433-8.787 16.103-8.787 6.839 0 12.86 3.655 16.367 9.194Zm-68.974 52.17c18.828 0 34.091-15.263 34.091-34.091 0-18.828-15.263-34.091-34.091-34.091-18.828 0-34.091 15.263-34.091 34.091 0 18.828 15.263 34.091 34.091 34.091Zm105.682 0c18.828 0 34.091-15.263 34.091-34.091 0-18.828-15.263-34.091-34.091-34.091-18.828 0-34.091 15.263-34.091 34.091 0 18.828 15.263 34.091 34.091 34.091Z" fill="#252C2F"/></g></g><defs><filter id="l" x="117.614" y="150.364" width="214.773" height="85.227" filterUnits="userSpaceOnUse" color-interpolation-filters="sRGB"><feFlood flood-opacity="0" result="BackgroundImageFix"/><feColorMatrix in="SourceAlpha" values="0 0 0 0 0 0 0 0 0 0 0 0 0 0 0 0 0 0 127 0" result="hardAlpha"/><feOffset dy="3.409"/><feColorMatrix values="0 0 0 0 0 0 0 0 0 0 0 0 0 0 0 0 0 0 0.1 0"/><feBlend in2="BackgroundImageFix" result="effect1_dropShadow_276_12"/><feBlend in="SourceGraphic" in2="effect1_dropShadow_276_12" result="shape"/></filter></defs></svg>