<svg width="450" height="478" fill="none" xmlns="http://www.w3.org/2000/svg"><path d="M225 477.636c112.967 0 204.546-91.578 204.546-204.545 0-112.967-91.579-204.546-204.546-204.546S20.455 160.124 20.455 273.091 112.033 477.636 225 477.636Z" fill="#E6E6E6"/><mask id="a" style="mask-type:luminance" maskUnits="userSpaceOnUse" x="20" y="68" width="410" height="410"><path d="M225 477.636c112.967 0 204.546-91.578 204.546-204.545 0-112.967-91.579-204.546-204.546-204.546S20.455 160.124 20.455 273.091 112.033 477.636 225 477.636Z" fill="#fff"/></mask><g mask="url(#a)"><path d="M429.546 68.545H20.455v409.091h409.091V68.546Z" fill="#FF6569"/></g><mask id="b" style="mask-type:luminance" maskUnits="userSpaceOnUse" x="0" y="0" width="450" height="478"><path d="M20.454 273.091c0 112.967 91.579 204.545 204.546 204.545s204.545-91.578 204.545-204.545H450V.364H0V273.09h20.454Z" fill="#fff"/></mask><g mask="url(#b)"><path d="M265.909 308.223v31.345h6.818c67.781 0 122.727 54.947 122.727 122.727v15.341H54.545v-15.341c0-67.78 54.947-122.727 122.728-122.727h6.818v-31.345c-29.382-13.958-50.502-42.484-54.025-76.244-9.929-1.403-17.566-9.936-17.566-20.252v-23.864c0-10.135 7.371-18.548 17.045-20.171v-10.51c0-52.718 42.737-95.455 95.455-95.455 52.718 0 95.454 42.737 95.454 95.455v10.51c9.675 1.623 17.046 10.036 17.046 20.171v23.864c0 10.316-7.637 18.849-17.566 20.252-3.523 33.76-24.643 62.286-54.025 76.244Z" fill="#D0C6AC"/><mask id="c" style="mask-type:luminance" maskUnits="userSpaceOnUse" x="54" y="61" width="342" height="417"><path d="M265.909 308.223v31.345h6.818c67.781 0 122.727 54.947 122.727 122.727v15.341H54.545v-15.341c0-67.78 54.947-122.727 122.728-122.727h6.818v-31.345c-29.382-13.958-50.502-42.484-54.025-76.244-9.929-1.403-17.566-9.936-17.566-20.252v-23.864c0-10.135 7.371-18.548 17.045-20.171v-10.51c0-52.718 42.737-95.455 95.455-95.455 52.718 0 95.454 42.737 95.454 95.455v10.51c9.675 1.623 17.046 10.036 17.046 20.171v23.864c0 10.316-7.637 18.849-17.566 20.252-3.523 33.76-24.643 62.286-54.025 76.244Z" fill="#fff"/></mask><g mask="url(#c)"><path d="M450 61.727H0v415.909h450V61.727Z" fill="#FFDBB4"/></g><mask id="d" style="mask-type:luminance" maskUnits="userSpaceOnUse" x="54" y="61" width="342" height="417"><path d="M265.909 308.223v31.345h6.818c67.781 0 122.727 54.947 122.727 122.727v15.341H54.545v-15.341c0-67.78 54.947-122.727 122.728-122.727h6.818v-31.345c-29.382-13.958-50.502-42.484-54.025-76.244-9.929-1.403-17.566-9.936-17.566-20.252v-23.864c0-10.135 7.371-18.548 17.045-20.171v-10.51c0-52.718 42.737-95.455 95.455-95.455 52.718 0 95.454 42.737 95.454 95.455v10.51c9.675 1.623 17.046 10.036 17.046 20.171v23.864c0 10.316-7.637 18.849-17.566 20.252-3.523 33.76-24.643 62.286-54.025 76.244Z" fill="#fff"/></mask><g mask="url(#d)"><path fill-rule="evenodd" clip-rule="evenodd" d="M320.454 196.386v39.205c0 52.718-42.736 95.454-95.454 95.454-52.718 0-95.455-42.736-95.455-95.454v-39.205 25.568c0 52.719 42.737 95.455 95.455 95.455 52.718 0 95.454-42.736 95.454-95.455v-25.568Z" fill="#000" fill-opacity=".1"/></g><path fill-rule="evenodd" clip-rule="evenodd" d="M184.091 312.416c-30.543 3.418-54.069 12.752-54.538 36.774-44.076 18.619-75.008 62.25-75.008 113.105v15.341h340.909v-15.341c0-50.855-30.931-94.486-75.007-113.105-.469-24.022-23.995-33.356-54.538-36.774v32.266c0 22.593-18.316 40.909-40.909 40.909-22.594 0-40.909-18.316-40.909-40.909v-32.266Z" fill="#B7C1DB"/><mask id="e" style="mask-type:luminance" maskUnits="userSpaceOnUse" x="54" y="312" width="342" height="166"><path fill-rule="evenodd" clip-rule="evenodd" d="M184.091 312.416c-30.543 3.418-54.069 12.752-54.538 36.774-44.076 18.619-75.008 62.25-75.008 113.105v15.341h340.909v-15.341c0-50.855-30.931-94.486-75.007-113.105-.469-24.022-23.995-33.356-54.538-36.774v32.266c0 22.593-18.316 40.909-40.909 40.909-22.594 0-40.909-18.316-40.909-40.909v-32.266Z" fill="#fff"/></mask><g mask="url(#e)"><path d="M450 290.136H0v187.5h450v-187.5Z" fill="#fff"/></g><mask id="f" style="mask-type:luminance" maskUnits="userSpaceOnUse" x="54" y="312" width="342" height="166"><path fill-rule="evenodd" clip-rule="evenodd" d="M184.091 312.416c-30.543 3.418-54.069 12.752-54.538 36.774-44.076 18.619-75.008 62.25-75.008 113.105v15.341h340.909v-15.341c0-50.855-30.931-94.486-75.007-113.105-.469-24.022-23.995-33.356-54.538-36.774v32.266c0 22.593-18.316 40.909-40.909 40.909-22.594 0-40.909-18.316-40.909-40.909v-32.266Z" fill="#fff"/></mask><g mask="url(#f)"><path fill-rule="evenodd" clip-rule="evenodd" d="M173.864 395.373v82.263h-11.932v-88.38a109.883 109.883 0 0 0 11.932 6.117Zm114.204-6.117v68.778a5.966 5.966 0 1 1-11.932 0v-62.661a109.883 109.883 0 0 0 11.932-6.117Z" fill="#F4F4F4"/></g><mask id="g" style="mask-type:luminance" maskUnits="userSpaceOnUse" x="54" y="312" width="342" height="166"><path fill-rule="evenodd" clip-rule="evenodd" d="M184.091 312.416c-30.543 3.418-54.069 12.752-54.538 36.774-44.076 18.619-75.008 62.25-75.008 113.105v15.341h340.909v-15.341c0-50.855-30.931-94.486-75.007-113.105-.469-24.022-23.995-33.356-54.538-36.774v32.266c0 22.593-18.316 40.909-40.909 40.909-22.594 0-40.909-18.316-40.909-40.909v-32.266Z" fill="#fff"/></mask><g mask="url(#g)"><path fill-rule="evenodd" clip-rule="evenodd" d="M155.046 311.826c-25.655 4.852-43.398 14.52-43.398 33.38 0 33.601 56.314 60.84 113.352 60.84 57.038 0 113.352-27.239 113.352-60.84 0-18.86-17.743-28.528-43.398-33.38 15.486 5.71 25.501 15.309 25.501 31.282 0 34.76-47.423 62.938-95.455 62.938s-95.455-28.178-95.455-62.938c0-15.973 10.015-25.572 25.501-31.282Z" fill="#000" fill-opacity=".16"/></g><path d="M201.136 256.045c0 9.157 10.497 15.341 23.864 15.341s23.864-6.184 23.864-15.341c0-1.882-1.619-3.409-3.41-3.409-2.203 0-3.187 1.543-3.409 3.409-2.117 5.008-7.358 8.039-17.045 8.523-9.688-.484-14.928-3.515-17.046-8.523-.222-1.866-1.205-3.409-3.409-3.409-1.79 0-3.409 1.527-3.409 3.409Z" fill="#000" fill-opacity=".6"/><path fill-rule="evenodd" clip-rule="evenodd" d="M204.545 221.955c0 7.531 9.158 13.636 20.455 13.636 11.297 0 20.455-6.105 20.455-13.636" fill="#000" fill-opacity=".16"/><path d="M180.682 201.5c5.648 0 10.227-4.579 10.227-10.227 0-5.649-4.579-10.228-10.227-10.228-5.649 0-10.227 4.579-10.227 10.228 0 5.648 4.578 10.227 10.227 10.227ZM269.318 201.5c5.649 0 10.228-4.579 10.228-10.227 0-5.649-4.579-10.228-10.228-10.228-5.648 0-10.227 4.579-10.227 10.228 0 5.648 4.579 10.227 10.227 10.227Z" fill="#000" fill-opacity=".6"/><path fill-rule="evenodd" clip-rule="evenodd" d="M204.707 169.326c.007-.014.007-.014 0 0Zm-42.292-20.658c-4.036-.454-8.279.847-10.953 4.148-1.006 1.241-2.649 4.227-2.573 5.824.029.607.384.641 1.916 1.006 2.805.669 7.67-1.899 10.832-1.656 4.401.337 8.602 2.378 12.414 4.566 6.543 3.754 14.24 11.66 22.317 11.246.602-.03 9.239-2.963 7.519-4.64-.54-.825-5.172-1.923-5.969-2.321-3.702-1.847-7.444-4.172-10.982-6.338-7.718-4.724-15.246-10.803-24.521-11.835ZM245.506 169.326c-.007-.014-.007-.014 0 0Zm42.401-20.658c4.036-.454 8.28.847 10.954 4.148 1.006 1.241 2.648 4.227 2.572 5.824-.028.607-.383.641-1.915 1.006-2.805.669-7.67-1.899-10.832-1.656-4.401.337-8.602 2.378-12.414 4.566-6.543 3.754-14.24 11.66-22.318 11.246-.601-.03-9.238-2.963-7.518-4.64.54-.825 5.172-1.923 5.969-2.321 3.702-1.847 7.443-4.172 10.981-6.338 7.719-4.724 15.247-10.803 24.521-11.835Z" fill="#000" fill-opacity=".6"/><mask id="h" style="mask-type:luminance" maskUnits="userSpaceOnUse" x="0" y="0" width="450" height="478"><path d="M450 .364H0v477.272h450V.364Z" fill="#fff"/></mask><g mask="url(#h)"><path fill-rule="evenodd" clip-rule="evenodd" d="M254.707 290.424c-4.284 3.91-8.848 5.669-14.617 4.439-.993-.211-5.04-7.736-15.09-7.736-10.051 0-14.098 7.525-15.091 7.736-5.769 1.23-10.333-.529-14.617-4.439-8.054-7.352-14.752-17.489-10.728-28.55 2.098-5.765 5.509-12.095 11.715-13.932 6.627-1.961 15.932-.003 22.61-1.343 2.163-.434 4.527-1.205 6.111-2.485 1.583 1.28 3.948 2.051 6.11 2.485 6.679 1.34 15.983-.618 22.61 1.343 6.206 1.837 9.617 8.167 11.715 13.932 4.025 11.061-2.673 21.198-10.728 28.55Zm65.886-123.015c-5.813 14.319-3.568 32.145-4.644 47.175-.874 12.217-3.443 30.528-14.291 38.418-5.547 4.035-15.645 10.816-22.894 8.925-4.989-1.302-5.522-15.614-12.079-20.972-7.438-6.076-16.725-8.746-26.09-8.334-4.041.178-12.213.136-15.595 3.244-3.382-3.108-11.554-3.066-15.595-3.244-9.365-.412-18.653 2.258-26.09 8.334-6.558 5.358-7.09 19.67-12.079 20.972-7.249 1.891-17.347-4.89-22.895-8.925-10.848-7.89-13.416-26.201-14.291-38.418-1.075-15.03 1.17-32.856-4.643-47.175-2.828 0-.963 27.493-.963 27.493V229.6c.054 26.059 16.332 65.063 52.422 79.956 8.826 3.643 28.819 9.558 44.134 9.558 15.314 0 35.307-5.352 44.134-8.995 36.09-14.893 52.367-54.46 52.422-80.519v-34.698s1.865-27.493-.963-27.493Z" fill="#4A312C"/><mask id="i" style="mask-type:luminance" maskUnits="userSpaceOnUse" x="127" y="167" width="196" height="153"><path fill-rule="evenodd" clip-rule="evenodd" d="M254.707 290.424c-4.284 3.91-8.848 5.669-14.617 4.439-.993-.211-5.04-7.736-15.09-7.736-10.051 0-14.098 7.525-15.091 7.736-5.769 1.23-10.333-.529-14.617-4.439-8.054-7.352-14.752-17.489-10.728-28.55 2.098-5.765 5.509-12.095 11.715-13.932 6.627-1.961 15.932-.003 22.61-1.343 2.163-.434 4.527-1.205 6.111-2.485 1.583 1.28 3.948 2.051 6.11 2.485 6.679 1.34 15.983-.618 22.61 1.343 6.206 1.837 9.617 8.167 11.715 13.932 4.025 11.061-2.673 21.198-10.728 28.55Zm65.886-123.015c-5.813 14.319-3.568 32.145-4.644 47.175-.874 12.217-3.443 30.528-14.291 38.418-5.547 4.035-15.645 10.816-22.894 8.925-4.989-1.302-5.522-15.614-12.079-20.972-7.438-6.076-16.725-8.746-26.09-8.334-4.041.178-12.213.136-15.595 3.244-3.382-3.108-11.554-3.066-15.595-3.244-9.365-.412-18.653 2.258-26.09 8.334-6.558 5.358-7.09 19.67-12.079 20.972-7.249 1.891-17.347-4.89-22.895-8.925-10.848-7.89-13.416-26.201-14.291-38.418-1.075-15.03 1.17-32.856-4.643-47.175-2.828 0-.963 27.493-.963 27.493V229.6c.054 26.059 16.332 65.063 52.422 79.956 8.826 3.643 28.819 9.558 44.134 9.558 15.314 0 35.307-5.352 44.134-8.995 36.09-14.893 52.367-54.46 52.422-80.519v-34.698s1.865-27.493-.963-27.493Z" fill="#fff"/></mask><g mask="url(#i)"><path d="M477.273 123.091h-450V539h450V123.091Z" fill="#2C1B18"/></g><path fill-rule="evenodd" clip-rule="evenodd" d="M283.481 60.033c-34.411-19.942-68.489-16.677-94.214-10.187-25.725 6.491-40.943 24.923-54 52.19-6.411 13.389-10.211 29.222-10.796 44.034-.23 5.816.555 11.819 2.122 17.419.574 2.056 3.674 9.182 4.525 3.424.283-1.917-.754-4.562-.854-6.599-.132-2.673.01-5.381.192-8.05.341-4.99 1.23-9.885 2.813-14.642 2.263-6.798 5.142-14.168 9.55-19.904 10.911-14.194 29.798-15.003 44.794-22.814-1.301 2.395-6.318 6.272-4.58 8.971 1.2 1.865 5.744 1.3 7.914 1.24 5.708-.156 11.442-1.15 17.08-1.955 8.886-1.271 17.212-3.844 25.575-6.97 6.846-2.56 14.665-4.93 19.81-10.36 8.303 8.604 18.991 16.695 29.662 22.164 9.576 4.908 25.02 7.36 30.874 17.314 6.929 11.785 3.741 26.261 5.857 39.034.805 4.858 2.634 4.749 3.635.404 1.699-7.38 2.502-15.047 1.961-22.634-1.225-17.127-7.509-62.136-41.92-82.079Z" fill="#28354B"/><mask id="j" style="mask-type:luminance" maskUnits="userSpaceOnUse" x="124" y="44" width="202" height="126"><path fill-rule="evenodd" clip-rule="evenodd" d="M283.481 60.033c-34.411-19.942-68.489-16.677-94.214-10.187-25.725 6.491-40.943 24.923-54 52.19-6.411 13.389-10.211 29.222-10.796 44.034-.23 5.816.555 11.819 2.122 17.419.574 2.056 3.674 9.182 4.525 3.424.283-1.917-.754-4.562-.854-6.599-.132-2.673.01-5.381.192-8.05.341-4.99 1.23-9.885 2.813-14.642 2.263-6.798 5.142-14.168 9.55-19.904 10.911-14.194 29.798-15.003 44.794-22.814-1.301 2.395-6.318 6.272-4.58 8.971 1.2 1.865 5.744 1.3 7.914 1.24 5.708-.156 11.442-1.15 17.08-1.955 8.886-1.271 17.212-3.844 25.575-6.97 6.846-2.56 14.665-4.93 19.81-10.36 8.303 8.604 18.991 16.695 29.662 22.164 9.576 4.908 25.02 7.36 30.874 17.314 6.929 11.785 3.741 26.261 5.857 39.034.805 4.858 2.634 4.749 3.635.404 1.699-7.38 2.502-15.047 1.961-22.634-1.225-17.127-7.509-62.136-41.92-82.079Z" fill="#fff"/></mask><g mask="url(#j)"><path d="M448.295.364h-450v477.272h450V.364Z" fill="#2C1B18"/></g><g filter="url(#k)"><path fill-rule="evenodd" clip-rule="evenodd" d="M241.133 173.194c6.674-13.526 20.604-22.83 36.708-22.83 15.204 0 28.471 8.294 35.522 20.604.359-.098.736-.15 1.126-.15h13.636a4.261 4.261 0 0 1 0 8.523h-11.143a40.881 40.881 0 0 1 1.768 11.932c0 22.593-18.316 40.909-40.909 40.909-22.594 0-40.909-18.316-40.909-40.909 0-2.424.21-4.799.615-7.106-.144-7.459-5.876-13.349-12.782-13.349-6.369 0-11.74 5.011-12.648 11.642.623 2.839.951 5.787.951 8.813 0 22.593-18.316 40.909-40.909 40.909s-40.909-18.316-40.909-40.909c0-4.151.618-8.157 1.767-11.932h-11.142a4.26 4.26 0 1 1 0-8.523h13.636c.39 0 .767.052 1.125.15 7.052-12.31 20.319-20.604 35.523-20.604 15.941 0 29.753 9.117 36.504 22.423 3.541-5.311 9.433-8.787 16.102-8.787 6.839 0 12.861 3.655 16.368 9.194Zm-68.974 52.17c18.828 0 34.091-15.263 34.091-34.091 0-18.828-15.263-34.091-34.091-34.091-18.828 0-34.091 15.263-34.091 34.091 0 18.828 15.263 34.091 34.091 34.091Zm105.682 0c18.828 0 34.091-15.263 34.091-34.091 0-18.828-15.263-34.091-34.091-34.091-18.828 0-34.091 15.263-34.091 34.091 0 18.828 15.263 34.091 34.091 34.091Z" fill="#000"/></g><path fill-rule="evenodd" clip-rule="evenodd" d="M241.133 173.194c6.674-13.526 20.604-22.83 36.708-22.83 15.204 0 28.471 8.294 35.522 20.604.359-.098.736-.15 1.126-.15h13.636a4.261 4.261 0 0 1 0 8.523h-11.143a40.881 40.881 0 0 1 1.768 11.932c0 22.593-18.316 40.909-40.909 40.909-22.594 0-40.909-18.316-40.909-40.909 0-2.424.21-4.799.615-7.106-.144-7.459-5.876-13.349-12.782-13.349-6.369 0-11.74 5.011-12.648 11.642.623 2.839.951 5.787.951 8.813 0 22.593-18.316 40.909-40.909 40.909s-40.909-18.316-40.909-40.909c0-4.151.618-8.157 1.767-11.932h-11.142a4.26 4.26 0 1 1 0-8.523h13.636c.39 0 .767.052 1.125.15 7.052-12.31 20.319-20.604 35.523-20.604 15.941 0 29.753 9.117 36.504 22.423 3.541-5.311 9.433-8.787 16.102-8.787 6.839 0 12.861 3.655 16.368 9.194Zm-68.974 52.17c18.828 0 34.091-15.263 34.091-34.091 0-18.828-15.263-34.091-34.091-34.091-18.828 0-34.091 15.263-34.091 34.091 0 18.828 15.263 34.091 34.091 34.091Zm105.682 0c18.828 0 34.091-15.263 34.091-34.091 0-18.828-15.263-34.091-34.091-34.091-18.828 0-34.091 15.263-34.091 34.091 0 18.828 15.263 34.091 34.091 34.091Z" fill="#252C2F"/></g></g><defs><filter id="k" x="117.614" y="150.364" width="214.773" height="85.227" filterUnits="userSpaceOnUse" color-interpolation-filters="sRGB"><feFlood flood-opacity="0" result="BackgroundImageFix"/><feColorMatrix in="SourceAlpha" values="0 0 0 0 0 0 0 0 0 0 0 0 0 0 0 0 0 0 127 0" result="hardAlpha"/><feOffset dy="3.409"/><feColorMatrix values="0 0 0 0 0 0 0 0 0 0 0 0 0 0 0 0 0 0 0.1 0"/><feBlend in2="BackgroundImageFix" result="effect1_dropShadow_284_11"/><feBlend in="SourceGraphic" in2="effect1_dropShadow_284_11" result="shape"/></filter></defs></svg>