<svg width="450" height="478" fill="none" xmlns="http://www.w3.org/2000/svg"><path d="M225 477.636c112.967 0 204.546-91.578 204.546-204.545 0-112.967-91.579-204.546-204.546-204.546S20.455 160.124 20.455 273.091 112.033 477.636 225 477.636Z" fill="#E6E6E6"/><mask id="a" style="mask-type:luminance" maskUnits="userSpaceOnUse" x="20" y="68" width="410" height="410"><path d="M225 477.636c112.967 0 204.546-91.578 204.546-204.545 0-112.967-91.579-204.546-204.546-204.546S20.455 160.124 20.455 273.091 112.033 477.636 225 477.636Z" fill="#fff"/></mask><g mask="url(#a)"><path d="M429.546 68.545H20.455v409.091h409.091V68.546Z" fill="#FF6569"/></g><mask id="b" style="mask-type:luminance" maskUnits="userSpaceOnUse" x="0" y="0" width="450" height="478"><path d="M20.454 273.091c0 112.967 91.579 204.545 204.546 204.545s204.545-91.578 204.545-204.545H450V.364H0V273.09h20.454Z" fill="#fff"/></mask><g mask="url(#b)"><path d="M265.909 308.223v31.345h6.818c67.781 0 122.727 54.947 122.727 122.727v15.341H54.545v-15.341c0-67.78 54.947-122.727 122.728-122.727h6.818v-31.345c-29.382-13.958-50.502-42.484-54.025-76.244-9.929-1.403-17.566-9.936-17.566-20.252v-23.864c0-10.135 7.371-18.548 17.045-20.171v-10.51c0-52.718 42.737-95.455 95.455-95.455 52.718 0 95.454 42.737 95.454 95.455v10.51c9.675 1.623 17.046 10.036 17.046 20.171v23.864c0 10.316-7.637 18.849-17.566 20.252-3.523 33.76-24.643 62.286-54.025 76.244Z" fill="#D0C6AC"/><mask id="c" style="mask-type:luminance" maskUnits="userSpaceOnUse" x="54" y="61" width="342" height="417"><path d="M265.909 308.223v31.345h6.818c67.781 0 122.727 54.947 122.727 122.727v15.341H54.545v-15.341c0-67.78 54.947-122.727 122.728-122.727h6.818v-31.345c-29.382-13.958-50.502-42.484-54.025-76.244-9.929-1.403-17.566-9.936-17.566-20.252v-23.864c0-10.135 7.371-18.548 17.045-20.171v-10.51c0-52.718 42.737-95.455 95.455-95.455 52.718 0 95.454 42.737 95.454 95.455v10.51c9.675 1.623 17.046 10.036 17.046 20.171v23.864c0 10.316-7.637 18.849-17.566 20.252-3.523 33.76-24.643 62.286-54.025 76.244Z" fill="#fff"/></mask><g mask="url(#c)"><path d="M450 61.727H0v415.909h450V61.727Z" fill="#EDB98A"/></g><mask id="d" style="mask-type:luminance" maskUnits="userSpaceOnUse" x="54" y="61" width="342" height="417"><path d="M265.909 308.223v31.345h6.818c67.781 0 122.727 54.947 122.727 122.727v15.341H54.545v-15.341c0-67.78 54.947-122.727 122.728-122.727h6.818v-31.345c-29.382-13.958-50.502-42.484-54.025-76.244-9.929-1.403-17.566-9.936-17.566-20.252v-23.864c0-10.135 7.371-18.548 17.045-20.171v-10.51c0-52.718 42.737-95.455 95.455-95.455 52.718 0 95.454 42.737 95.454 95.455v10.51c9.675 1.623 17.046 10.036 17.046 20.171v23.864c0 10.316-7.637 18.849-17.566 20.252-3.523 33.76-24.643 62.286-54.025 76.244Z" fill="#fff"/></mask><g mask="url(#d)"><path fill-rule="evenodd" clip-rule="evenodd" d="M320.454 196.386v39.205c0 52.718-42.736 95.454-95.454 95.454-52.718 0-95.455-42.736-95.455-95.454v-39.205 25.568c0 52.719 42.737 95.455 95.455 95.455 52.718 0 95.454-42.736 95.454-95.455v-25.568Z" fill="#000" fill-opacity=".1"/></g><path fill-rule="evenodd" clip-rule="evenodd" d="M184.091 312.416c-30.543 3.418-54.069 12.752-54.538 36.774-44.076 18.619-75.008 62.25-75.008 113.105v15.341h340.909v-15.341c0-50.855-30.931-94.486-75.007-113.105-.469-24.022-23.995-33.356-54.538-36.774v32.266c0 22.593-18.316 40.909-40.909 40.909-22.594 0-40.909-18.316-40.909-40.909v-32.266Z" fill="#B7C1DB"/><mask id="e" style="mask-type:luminance" maskUnits="userSpaceOnUse" x="54" y="312" width="342" height="166"><path fill-rule="evenodd" clip-rule="evenodd" d="M184.091 312.416c-30.543 3.418-54.069 12.752-54.538 36.774-44.076 18.619-75.008 62.25-75.008 113.105v15.341h340.909v-15.341c0-50.855-30.931-94.486-75.007-113.105-.469-24.022-23.995-33.356-54.538-36.774v32.266c0 22.593-18.316 40.909-40.909 40.909-22.594 0-40.909-18.316-40.909-40.909v-32.266Z" fill="#fff"/></mask><g mask="url(#e)"><path d="M450 290.136H0v187.5h450v-187.5Z" fill="#fff"/></g><mask id="f" style="mask-type:luminance" maskUnits="userSpaceOnUse" x="54" y="312" width="342" height="166"><path fill-rule="evenodd" clip-rule="evenodd" d="M184.091 312.416c-30.543 3.418-54.069 12.752-54.538 36.774-44.076 18.619-75.008 62.25-75.008 113.105v15.341h340.909v-15.341c0-50.855-30.931-94.486-75.007-113.105-.469-24.022-23.995-33.356-54.538-36.774v32.266c0 22.593-18.316 40.909-40.909 40.909-22.594 0-40.909-18.316-40.909-40.909v-32.266Z" fill="#fff"/></mask><g mask="url(#f)"><path fill-rule="evenodd" clip-rule="evenodd" d="M173.864 395.373v82.263h-11.932v-88.38a109.883 109.883 0 0 0 11.932 6.117Zm114.204-6.117v68.778a5.966 5.966 0 1 1-11.932 0v-62.661a109.883 109.883 0 0 0 11.932-6.117Z" fill="#F4F4F4"/></g><mask id="g" style="mask-type:luminance" maskUnits="userSpaceOnUse" x="54" y="312" width="342" height="166"><path fill-rule="evenodd" clip-rule="evenodd" d="M184.091 312.416c-30.543 3.418-54.069 12.752-54.538 36.774-44.076 18.619-75.008 62.25-75.008 113.105v15.341h340.909v-15.341c0-50.855-30.931-94.486-75.007-113.105-.469-24.022-23.995-33.356-54.538-36.774v32.266c0 22.593-18.316 40.909-40.909 40.909-22.594 0-40.909-18.316-40.909-40.909v-32.266Z" fill="#fff"/></mask><g mask="url(#g)"><path fill-rule="evenodd" clip-rule="evenodd" d="M155.046 311.826c-25.655 4.852-43.398 14.52-43.398 33.38 0 33.601 56.314 60.84 113.352 60.84 57.038 0 113.352-27.239 113.352-60.84 0-18.86-17.743-28.528-43.398-33.38 15.486 5.71 25.501 15.309 25.501 31.282 0 34.76-47.423 62.938-95.455 62.938s-95.455-28.178-95.455-62.938c0-15.973 10.015-25.572 25.501-31.282Z" fill="#000" fill-opacity=".16"/></g><path fill-rule="evenodd" clip-rule="evenodd" d="M192.814 254.559c1.804 16.179 15.526 28.759 32.186 28.759 16.712 0 30.467-12.658 32.202-28.909.139-1.308-1.321-3.477-3.152-3.477h-57.879c-1.842 0-3.537 2.008-3.357 3.627Z" fill="#000" fill-opacity=".7"/><mask id="h" style="mask-type:luminance" maskUnits="userSpaceOnUse" x="192" y="250" width="66" height="34"><path fill-rule="evenodd" clip-rule="evenodd" d="M192.814 254.559c1.804 16.179 15.526 28.759 32.186 28.759 16.712 0 30.467-12.658 32.202-28.909.139-1.308-1.321-3.477-3.152-3.477h-57.879c-1.842 0-3.537 2.008-3.357 3.627Z" fill="#fff"/></mask><g mask="url(#h)"><path d="M243.75 232.182h-35.796a8.522 8.522 0 0 0-8.522 8.522v10.228a8.522 8.522 0 0 0 8.522 8.522h35.796a8.522 8.522 0 0 0 8.523-8.522v-10.228a8.522 8.522 0 0 0-8.523-8.522Z" fill="#fff"/></g><mask id="i" style="mask-type:luminance" maskUnits="userSpaceOnUse" x="192" y="250" width="66" height="34"><path fill-rule="evenodd" clip-rule="evenodd" d="M192.814 254.559c1.804 16.179 15.526 28.759 32.186 28.759 16.712 0 30.467-12.658 32.202-28.909.139-1.308-1.321-3.477-3.152-3.477h-57.879c-1.842 0-3.537 2.008-3.357 3.627Z" fill="#fff"/></mask><g mask="url(#i)" fill="#FF4F6D"><path d="M216.477 307.182c10.356 0 18.75-8.395 18.75-18.75 0-10.356-8.394-18.75-18.75-18.75-10.355 0-18.75 8.394-18.75 18.75 0 10.355 8.395 18.75 18.75 18.75Z"/><path d="M233.523 307.182c10.355 0 18.75-8.395 18.75-18.75 0-10.356-8.395-18.75-18.75-18.75-10.356 0-18.75 8.394-18.75 18.75 0 10.355 8.394 18.75 18.75 18.75Z"/></g><path fill-rule="evenodd" clip-rule="evenodd" d="M204.545 221.955c0 7.531 9.158 13.636 20.455 13.636 11.297 0 20.455-6.105 20.455-13.636" fill="#000" fill-opacity=".16"/><path d="M180.682 201.5c5.648 0 10.227-4.579 10.227-10.227 0-5.649-4.579-10.228-10.227-10.228-5.649 0-10.227 4.579-10.227 10.228 0 5.648 4.578 10.227 10.227 10.227ZM269.318 201.5c5.649 0 10.227-4.579 10.227-10.227 0-5.649-4.578-10.228-10.227-10.228-5.648 0-10.227 4.579-10.227 10.228 0 5.648 4.579 10.227 10.227 10.227Z" fill="#000" fill-opacity=".6"/><path fill-rule="evenodd" clip-rule="evenodd" d="M174.797 150.617c-9.899.457-25.901 7.649-25.489 17.631.014.327.494.47.728.219 4.696-5.044 38.038-10.142 49.781-7.441 1.075.248 1.892-.812 1.211-1.578-5.833-6.56-17.364-9.25-26.231-8.831ZM276.908 150.617c9.898.457 25.901 7.649 25.488 17.631-.013.327-.493.47-.728.219-4.696-5.044-38.037-10.142-49.781-7.441-1.075.248-1.891-.812-1.21-1.578 5.833-6.56 17.363-9.25 26.231-8.831Z" fill="#000" fill-opacity=".6"/><mask id="j" style="mask-type:luminance" maskUnits="userSpaceOnUse" x="0" y="0" width="450" height="478"><path d="M450 .364H0v477.272h450V.364Z" fill="#fff"/></mask><g mask="url(#j)"><path fill-rule="evenodd" clip-rule="evenodd" d="M316.759 126.378c2.995 1.685 5.366 18.578 5.481 25.038.072 3.986.136 19.187-4.08 17.873-1.283-.4-3.242-8.447-3.521-13.157-.279-4.71-2.954-20.735-7.059-28.107-.938-1.685-3.624-4.643-2.464-6.068 1.44-1.767 2.838-.742 4.595-.034 1.901.766 6.711 4.267 7.048 4.455Zm1.372-5.066c-1.272 1.64-9.956-2.964-13.578-4.965-30.418-16.806-36.323-22.15-84.248-21.453-47.925.697-80.758 23.151-82.605 25.448-1.285 1.598-2.925 5.864-4.274 17.75-1.349 11.885.373 33.199-4.51 33.174-4.158-.022-5.062-40.544-3.268-56.619.276-2.468 1.338-6.883.569-9.103-.672-1.939-3.958-1.935-3.433-5.166.596-3.678 4.304-1.851 5.919-3.61 3.059-3.331-1.659-4.12-2.442-7.034-1.163-4.332 2.198-5.45 5.227-6.818 3.352-1.512 2.916-.184 5.636-3.147-3.633-2.663-4.947-6.291.028-8.238 2.113-.826 7.61.268 9.265-.974.432-.324.603-2.18.868-2.56 2.644-3.782 1.992-6.52 1.724-10.766-.221-3.474-.191-6.663 3.968-7.01 2.776-.232 5.033 2.036 7.52 2.704 2.759.74 1.723 1.281 3.884-.206 3.795-2.614 1.212-7.706 4.221-10.744 4.13-4.17 6.836 1.942 10.152 2.403 7.197 1.003 4.887-6.307 9.148-8.985 5.093-3.2 5.586 3.836 8.767 4.087 2.756.216 7.719-5.103 10.122-6.094 7.129-2.942 10.662 5.336 17.449 4.28 4.925-.766 6.254-1.392 10.699 1.41 4.314 2.72 5.339.776 10.224.737 3.451-.026 5.565 2.858 8.452 3.158 1.44.151 2.819-1.349 4.364-1.255 5.518.335 5.867 7.47 10.251 9.435 4.006 1.795 8.715-.727 12.69-1.193 9.7-1.139 3.058 7.921 3.331 13.328 3.808.888 7.672-2.665 11.462-2.011 5.969 1.03 3.716 7.216 2.333 11.386 4.135-.075 14.93-4.665 17.61 1.206 1.381 3.027-1.838 7.069-1.785 10.146.074 4.332 3.257 7.916 4.384 12.016 1.52 5.535 3.686 20.37-.124 25.283Z" fill="#2E3257"/><mask id="k" style="mask-type:luminance" maskUnits="userSpaceOnUse" x="122" y="32" width="201" height="140"><path fill-rule="evenodd" clip-rule="evenodd" d="M316.759 126.378c2.995 1.685 5.366 18.578 5.481 25.038.072 3.986.136 19.187-4.08 17.873-1.283-.4-3.242-8.447-3.521-13.157-.279-4.71-2.954-20.735-7.059-28.107-.938-1.685-3.624-4.643-2.464-6.068 1.44-1.767 2.838-.742 4.595-.034 1.901.766 6.711 4.267 7.048 4.455Zm1.372-5.066c-1.272 1.64-9.956-2.964-13.578-4.965-30.418-16.806-36.323-22.15-84.248-21.453-47.925.697-80.758 23.151-82.605 25.448-1.285 1.598-2.925 5.864-4.274 17.75-1.349 11.885.373 33.199-4.51 33.174-4.158-.022-5.062-40.544-3.268-56.619.276-2.468 1.338-6.883.569-9.103-.672-1.939-3.958-1.935-3.433-5.166.596-3.678 4.304-1.851 5.919-3.61 3.059-3.331-1.659-4.12-2.442-7.034-1.163-4.332 2.198-5.45 5.227-6.818 3.352-1.512 2.916-.184 5.636-3.147-3.633-2.663-4.947-6.291.028-8.238 2.113-.826 7.61.268 9.265-.974.432-.324.603-2.18.868-2.56 2.644-3.782 1.992-6.52 1.724-10.766-.221-3.474-.191-6.663 3.968-7.01 2.776-.232 5.033 2.036 7.52 2.704 2.759.74 1.723 1.281 3.884-.206 3.795-2.614 1.212-7.706 4.221-10.744 4.13-4.17 6.836 1.942 10.152 2.403 7.197 1.003 4.887-6.307 9.148-8.985 5.093-3.2 5.586 3.836 8.767 4.087 2.756.216 7.719-5.103 10.122-6.094 7.129-2.942 10.662 5.336 17.449 4.28 4.925-.766 6.254-1.392 10.699 1.41 4.314 2.72 5.339.776 10.224.737 3.451-.026 5.565 2.858 8.452 3.158 1.44.151 2.819-1.349 4.364-1.255 5.518.335 5.867 7.47 10.251 9.435 4.006 1.795 8.715-.727 12.69-1.193 9.7-1.139 3.058 7.921 3.331 13.328 3.808.888 7.672-2.665 11.462-2.011 5.969 1.03 3.716 7.216 2.333 11.386 4.135-.075 14.93-4.665 17.61 1.206 1.381 3.027-1.838 7.069-1.785 10.146.074 4.332 3.257 7.916 4.384 12.016 1.52 5.535 3.686 20.37-.124 25.283Z" fill="#fff"/></mask><g mask="url(#k)"><path d="M450 .363H0v477.273h450V.363Z" fill="#2C1B18"/></g></g></g></svg>