<svg width="141" height="41" fill="none" xmlns="http://www.w3.org/2000/svg"><mask id="a" style="mask-type:luminance" maskUnits="userSpaceOnUse" x="0" y="0" width="141" height="41"><path d="M140.519 0H0v40.44h140.519V0Z" fill="#fff"/></mask><g mask="url(#a)"><path d="M140.519 0H0v40.44h140.519V0Z" fill="red"/></g><mask id="b" style="mask-type:luminance" maskUnits="userSpaceOnUse" x="0" y="0" width="141" height="41"><path d="M140.519 0H0v40.44h140.519V0Z" fill="#fff"/></mask><g mask="url(#b)"><path d="M0 34.56h7.558v-1.08H0v1.08Zm0-6.84h7.558v-1.08H0v1.08Zm0-7.08h7.558v-1.08H0v1.08Zm0-6.96h7.558V12.6H0v1.08Zm0-6.84h7.558V5.76H0v1.08Z" fill="#fff"/></g><mask id="c" style="mask-type:luminance" maskUnits="userSpaceOnUse" x="0" y="0" width="141" height="41"><path d="M140.519 0H0v40.44h140.519V0Z" fill="#fff"/></mask><g mask="url(#c)"><path d="M133.067 34.56h7.452v-1.08h-7.452v1.08Zm0-6.84h7.452v-1.08h-7.452v1.08Zm0-7.08h7.452v-1.08h-7.452v1.08Zm0-6.96h7.452V12.6h-7.452v1.08Zm0-6.84h7.452V5.76h-7.452v1.08Z" fill="#fff"/></g><mask id="d" style="mask-type:luminance" maskUnits="userSpaceOnUse" x="0" y="0" width="141" height="41"><path d="M140.519 0H0v40.44h140.519V0Z" fill="#fff"/></mask><g mask="url(#d)"><mask id="e" style="mask-type:luminance" maskUnits="userSpaceOnUse" x="0" y="0" width="141" height="41"><path d="M140.519 0H0v40.44h140.519V0Z" fill="#fff"/></mask><g mask="url(#e)"><path fill-rule="evenodd" clip-rule="evenodd" d="m124.977 34.56 5.429-28.8h-7.133l-5.429 28.8h7.133ZM99.002 23.28l5.749-12h.106l.958 12h-6.813Zm-5.536 11.28 2.768-5.64h10.433l.638 5.64h7.984l-4.684-28.8h-8.622l-15.649 28.8h7.132Zm-34.703 0h6.387L69.3 12.48h.107l4.47 22.08h9.795l5.429-28.8h-6.387l-4.046 21.36v.12L74.092 5.76h-9.9l-5.43 28.8Zm-3.94 0 1.065-5.64H43.433l1.171-6.12h11.39l1.065-5.64H45.67l1.17-6h12.35l1.064-5.64H40.772l-5.43 28.8h19.482v.24Zm-20.545-20.4c1.703-6.96-3.3-9.12-8.516-9.12-5.323 0-11.071 1.92-12.562 8.76-.532 3.12.213 5.76 2.555 7.08 5.004 2.76 10.433 1.92 9.687 5.88-.319 1.92-2.66 2.88-4.258 2.88-2.555 0-4.045-1.44-3.513-4.2H10.54c-1.384 7.8 3.513 9.84 9.474 9.84 5.962 0 11.817-2.88 12.881-9 1.49-7.8-4.684-8.28-8.729-9.48-1.81-.6-3.939-1.2-3.513-3.36.32-1.44 1.916-2.64 3.513-2.64 1.171 0 2.023.36 2.555.96s.639 1.44.426 2.52h7.132v-.12Z" fill="#fff"/></g></g></svg>